<svg version="1.1" id="Layer_1" xmlns="http://www.w3.org/2000/svg" xmlns:xlink="http://www.w3.org/1999/xlink" x="0" y="0" viewBox="0 0 500 500" style="enable-background:new 0 0 500 500" xml:space="preserve"><style>.st0{display:none}.st1{display:inline}.st3{fill-rule:evenodd;clip-rule:evenodd;fill:#010101}.st6{fill:#3b89c3}.st13{fill:#5fa9dd}.st25{fill:#fff}.st30{fill:#7fbee8}.st39{fill:#454c55}.st58{fill:none;stroke:#1d4676;stroke-width:1.8024;stroke-linecap:round;stroke-linejoin:round;stroke-miterlimit:10}.st61{display:inline}.st61,.st63{fill:#010101}.st69{fill:#121210}.st104{fill:#5c3f37}.st108{display:inline}.st108,.st110{fill:#36251d}.st118{display:inline;fill:#121210}.st137{fill:none;stroke:#3c2b49;stroke-width:1.1664;stroke-linecap:round;stroke-linejoin:round;stroke-miterlimit:10}</style><g id="clothes-6"><defs><path id="SVGID_00000079474699911662870190000009149729558155867530_" d="M199.4 188.8h92.8v85h-92.8z"/></defs><clipPath id="SVGID_00000000938804546510653990000016552156758033758893_"><use xlink:href="#SVGID_00000079474699911662870190000009149729558155867530_" style="overflow:visible"/></clipPath><g style="clip-path:url(#SVGID_00000000938804546510653990000016552156758033758893_)"><path d="M235.6 188.8s2 11.1 13.9 10.4c8.2-.5 11.6-8.6 11.7-8.6 9.4-.6 18.2 15.5 23.4 21.5.8.9 7.4 7.1 7.5 8 .3 2.2-14.2 14.4-14.2 14.9 0 4.7 1.3 9.8 2 14.4.5 3.2.9 6.3 1.2 9.5.1.7 1 11 .7 11.3-3.3 3.3-20.9.6-24.7.5-5.7-.2-40.6 3.1-41.3 3-.1 0 .4-5.3.8-8.3.9-8.7 3.6-17.9 3.6-26.6 0-.1-1.9-.4-2-.4-6-1.5-10.8-5.8-16.9-7.4-.2 0-1.9-.3-1.9-.6-.2-1.6 4.8-9.9 5.6-11.5 2.2-4.4 4.1-11.4 7.9-14.7 1.2-1 19.6-14 22.7-15.4" style="fill-rule:evenodd;clip-rule:evenodd;fill:#38b6ff"/></g><defs><path id="SVGID_00000027588815678181998570000007461666960044960393_" d="M199.4 189.4h90.7v84.5h-90.7z"/></defs><clipPath id="SVGID_00000035499697081552510900000014163655355484865693_"><use xlink:href="#SVGID_00000027588815678181998570000007461666960044960393_" style="overflow:visible"/></clipPath><g style="clip-path:url(#SVGID_00000035499697081552510900000014163655355484865693_)"><defs><path id="SVGID_00000080912998834086745050000007734036376197387963_" d="M235.6 188.8s2 11.1 13.9 10.4c8.2-.5 11.6-8.6 11.7-8.6 9.4-.6 18.2 15.5 23.4 21.5.8.9 7.4 7.1 7.5 8 .3 2.2-14.2 14.4-14.2 14.9 0 4.7 1.3 9.8 2 14.4.5 3.2.9 6.3 1.2 9.5.1.7 1 11 .7 11.3-3.3 3.3-20.9.6-24.7.5-5.7-.2-40.6 3.1-41.3 3-.1 0 .4-5.3.8-8.3.9-8.7 3.6-17.9 3.6-26.6 0-.1-1.9-.4-2-.4-6-1.5-10.8-5.8-16.9-7.4-.2 0-1.9-.3-1.9-.6-.2-1.6 4.8-9.9 5.6-11.5 2.2-4.4 4.1-11.4 7.9-14.7 1.2-1 19.6-14 22.7-15.4z"/></defs><clipPath id="SVGID_00000121238103040653948040000005969818434269897895_"><use xlink:href="#SVGID_00000080912998834086745050000007734036376197387963_" style="overflow:visible"/></clipPath><g style="clip-path:url(#SVGID_00000121238103040653948040000005969818434269897895_)"><path d="m260.7 228.7-.2-.2-.1.1c.1.1.2.2.3.1-.1.1 0 .1 0 0zm-21.4.3c0-.1-.1-.1-.1-.2h-.1c0 .1 0 .2.2.2-.1.1-.1.1 0 0zm8.1 25.3v-.3h-.2c.1.1.1.2.2.3zm18.3-6.3c.1.1.2.1.3.2 0-.2-.1-.2-.3-.2zm2.5-26.6h-.2c0 .1 0 .1.1.1h.1v-.1zm-32.6 5.3s-.1 0-.2-.1v.1l.2.2h.1c-.1-.1-.1-.2-.1-.2zm36.3 16.8c.1 0 .1-.1.2-.1 0 0-.1-.1-.1-.2-.1.2-.2.2-.1.3-.1 0-.1 0 0 0zm-19.6-28.4c-.1 0-.1 0-.2-.1v.1c0 .1.1.1.2 0 0 .1 0 .1 0 0zm10.5 29s-.1 0 0 0c-.1.2-.1.3.1.3v-.2c-.1 0-.1-.1-.1-.1zm-18.4-31.3v-.2h-.2l.2.2zm7.2 27c.1 0 .2 0 .3-.1-.2-.1-.3 0-.3.1-.1 0 0 0 0 0zm-9.6-23c.1.1.2.1.3.2-.2-.3-.2-.3-.3-.2zm-11.6 12.3c.1 0 .2 0 .3.1-.1-.2-.1-.2-.3-.1zm28.5-17.3c0-.1 0-.1-.1-.2h-.1v.2h.2zm-.3 1.8c.1.1.2 0 .3 0-.1-.1-.1-.1-.1-.2l-.2.2zm-23.8 12.6c0 .1 0 .1.1.2h.1c-.1-.2-.1-.2-.2-.2 0-.1 0-.1 0 0zm4.2-13c-.1 0-.2-.1-.3-.1v.1h.3zm37.8 43.3v-.3c-.1 0-.1.1-.2.1.1 0 .2.1.2.2zm-34-28-.2.2h.3c0-.1-.1-.2-.1-.2zm.3 9.1c0 .1.1.1.1.2h.1c0-.1 0-.1-.1-.2h-.1zm24.8-1.5c0 .1 0 .1 0 0-.1.1-.1.1-.1.3.1 0 .2-.1.2-.1-.1 0-.1-.1-.1-.2zm14.8 6.9h.2v-.1l-.2-.2v.3zm-52.7-4.4.1.1-.3-.3.2.2zm14-1.3s-.1 0 0 0v.2l.1-.1s0-.1-.1-.1zm13.7 2.6s-.1 0-.1.1v.1c.1 0 .1.1.2.1v-.1c0-.2 0-.2-.1-.2zm-14.1-34c-.1-.1-.1-.1-.2-.1l-.1.1h.3c-.1.1 0 0 0 0zm15.4 19.5h-.2v.1c.1-.1.1-.1.2-.1zm6.4 14.5c-.1 0-.1-.1-.2-.1v.2c0-.1.1-.1.2-.1zm-24-22.5c-.1.3.2.2.3.3v-.1c-.1 0-.2-.1-.3-.2zm-10 14.2c0 .1 0 .2-.1.3.2-.1.3-.2.1-.3zm37.9 10.3c0-.1 0-.2-.1-.3h-.1v.2c.1 0 .2.1.2.1zm-34.6-39.2c.1.1.1.2.2.3h.1c0-.3-.2-.3-.3-.3zm7.6 23.3c0 .2.1.2.1 0 0 0 0-.1-.1-.2h-.1c.1.1.1.2.1.2zm5.3-10.6c0 .1.1.1.1.2h.1c0-.2-.1-.2-.2-.2.1-.1 0-.1 0 0zm-13.5-3.6c0-.1.1-.2-.1-.2 0 .1 0 .1.1.2zm-3.4 19.8-.2-.2c0 .2 0 .2.2.2zm34.7 11.8c-.1 0-.1.1-.2.1.1 0 .1.1.2.1l.1-.1c0-.1 0-.1-.1-.1.1-.1.1-.1 0 0zm-23.7-26.1c.1.1.2.1.3.1l.1-.1c-.1 0-.1-.1-.2-.1 0 0-.1.1-.2.1zm24.6 28.5v.2c.1 0 .1 0 .2-.1 0 0-.1 0-.2-.1.1 0 0 0 0 0zm-1.7-2.7-.2-.2c0 .1 0 .1.1.2 0 0 .1 0 .1.1v-.1zM247 219.4c.1.1.2.1.3.2v-.1c-.1-.1-.2-.1-.3-.1zm-7 1.2s0 .1 0 0c-.1.1 0 .2 0 .3l.1-.1s0-.1-.1-.2zm-8.1 4.8h-.2c.1 0 .2.1.3.2-.1-.1-.1-.2-.1-.2zm32.6 13.3c-.1-.1-.1-.2-.1-.4h-.1v.1c0 .1.1.2.2.3zm-31.6-.9c.1 0 .2.1.2.1l.1-.1-.2-.2c-.1.1-.1.2-.1.2zm4.6-26s0-.1 0 0c-.1 0-.2 0-.4.1.1 0 .2.1.2.1.1-.1.1-.2.2-.2zm-5.9 8.7c0 .1 0 .1.1.2h.2v-.1c-.1-.1-.1-.1-.3-.1.1 0 .1 0 0 0zm39.7 28.9c.1 0 .1.1.2.1 0 0 0-.1.1-.1l-.2-.2c0 .1 0 .1-.1.2zm-2.8-18c.1.1.1.1 0 0 .1 0 .2.1.2 0l.1-.1c0-.1-.1-.1-.1-.2h-.1c.1.2.1.3-.1.3zm-19.6-20.2v-.2h-.2v.1c.1.1.1.1.2.1zm-7.9 3.7c.1.1.1.2.2.3 0-.2 0-.3-.2-.3zm-9.8 20.6c-.2 0-.2 0-.3.1.1 0 .1.1.1.1.1 0 .2-.1.2-.2zm33.1-.6v-.1c-.1 0-.2 0-.2-.1v.1c.1.1.2.1.2.1zm-3.7-10.2c-.2.2-.1.3.1.3 0-.1 0-.2-.1-.3zm5.6 16.5c-.1.1-.1.1-.1.2.1 0 .1.1.2.1h.1c-.1-.1-.1-.2-.2-.3zm3.6 2.3v.2h.1v-.2h-.1zm-4.9-18-.2.2c.3.1.2-.1.2-.2.1 0 .1 0 0 0zm-21.7-8.6c0-.1 0-.2-.1-.2h-.1c0 .1-.1.1-.1.2.2-.1.2 0 .3 0zm13 20.9s0 .1 0 0c0 .1 0 .2.1.2 0 0 .1 0 .1-.1-.1 0-.1 0-.2-.1zm22.2 11.5v-.2h-.1v.2h.1zm-1.6.7c0-.2 0-.2-.2-.2.1 0 .1.1.2.2zM237 213.8v.2c.1 0 .1-.1.2-.1v-.1h-.2zm31.2 27.3c-.1 0-.2 0-.3-.1.1.3.2.1.3.1zm1.6 9.4.2.2.1-.1c-.2-.1-.2-.1-.3-.1 0-.1 0-.1 0 0zm-15.9-32.7v-.2h-.1v.2h.1zm-24.7-3 .2.2h.1c0-.1 0-.2-.1-.2 0-.1-.1 0-.2 0zm2.4 19.5c0 .1 0 .1 0 0 .1.1.1.2.2.3 0-.1 0-.2-.1-.2 0-.1-.1-.1-.1-.1zm33.3-.9c0-.1.1-.3 0-.4 0 .1-.1.1-.1.2h.1c0 .1-.1.1-.1.2h.1zM242 214c-.1 0-.1 0 0 0 .1.1 0 .4.3.2-.1-.1-.2-.2-.3-.2zm26 45.5c.1 0 .1.1 0 0 .1 0 .2 0 .3-.1 0 0 0-.1-.1-.1 0 .1-.1.2-.2.2zm-27.8-45.8c.1-.1.2-.1.2-.1v-.1c-.1 0-.1-.1-.2-.1v.3zm4.3 2c0-.1-.1-.1-.1-.2l-.1-.1-.1.1c.1.1.2.2.3.2zm-8.6 8.9-.1-.1s0-.1-.1-.1-.1.1-.2.1c.2 0 .3.1.4.1zm31 5v-.3h-.1c-.1.1-.1.2.1.3zm-2.1-9.6-.2-.2s-.1 0-.1.1.1.1.3.1c-.1.1-.1 0 0 0zM247 232.4c.1.1.2.1.3.2 0-.3 0-.3-.3-.2zm10.5 11.3h.2v-.1c-.1 0-.1-.1-.2-.2v.3zm3.3-4.6c-.1-.1-.2-.1-.3-.2.1.3.1.3.3.2zm-23.6-32.8s0-.1.1-.2c-.1 0-.2.1-.2.1v.1h.1zm-5.8 29.8c0-.1 0-.2.1-.2h-.3l.2.2zm33.4 9.8c.1 0 .2.1.3.1v-.1c-.1-.1-.1-.2-.3 0zM231.4 230h-.2v.1c.1 0 .2 0 .3.1 0-.1 0-.1-.1-.2zm1-13.6s.1-.1 0 0v-.3l-.1.1s0 .1.1.2zm.3-1.3c-.1 0-.1-.1-.2-.1s-.1.1-.1.1c0 .2.1.2.3 0zm40.8 24c-.1-.1-.1-.2-.2-.2-.1.2 0 .2.2.2zm-41-20.5v.1l.2.2.1-.1c-.1 0-.2-.1-.3-.2zm27-4.8h.3c0-.1 0-.1-.1-.2 0 .1-.1.1-.2.2zm-18.1 3.3c-.1-.1-.2-.2-.3-.2 0 .3.1.3.3.2zm-.6-6.3h.2v-.1l-.2-.2h-.1c.1.2 0 .3.1.3zm-6.8 25.3c-.1-.1-.1-.2-.2-.3-.1.2-.1.2.2.3zm14.4-19.4v-.2h-.2v.1c0 .1.1.1.2.1zm28.8 15.9c.1-.2.1-.2-.2-.2 0 .1 0 .2.2.2zm-27.6-16.9c.1 0 .2.1.3.1 0-.2-.1-.2-.3-.1zm-8.9-.4c-.1-.2-.1-.3-.1-.4-.2.2-.1.3.1.4zm9.3 0s0-.1-.1-.2c0 .1-.1.2-.1.3.2.2.2 0 .2-.1zm19.5 14.2c-.1-.1-.1-.2-.2-.3 0 .1-.1.2-.1.2.1.1.2.1.3.1zm-39.3-13.2c.1.1.1.2.1.2l.1.1s.1 0 .1-.1c0 0 0-.1-.1-.1 0-.1-.1-.1-.2-.1zm43.4 34.6s0 .1 0 0c.1.1.2.1.2.1v-.2c0 .1-.1.1-.2.1zm-3.7-12.7v-.2c0-.1-.1-.1-.2-.1.1.1.1.2 0 .3.1 0 .2.1.2 0zm-18.3-14.3s.1-.1.2-.1l-.2-.2c-.1.2-.1.3 0 .3zm-20.5-5.9v.2h.3c0-.1-.1-.1-.1-.2h-.2zm34.3 5.3h.3v-.1c-.1-.1-.2-.1-.2-.2 0 .2 0 .2-.1.3zm-32.9 3c.2.1.3.1.5.2v-.1c-.2.1-.2-.3-.5-.1zm31.3 14.4-.2.2c.1.1.2.1.3 0 0-.1 0-.1-.1-.2zm16.5 2.9c-.1-.1-.2-.1-.3 0 .2.2.2.2.3 0zm-44.6-30.4c-.1-.2-.2-.2-.3-.1 0 .2.1.1.3.1zm28.1 10.7c-.1-.1-.1-.2-.2-.4-.1.3 0 .4.2.4zm14.3 8v.2l.1.1.1-.1c-.1-.1-.1-.2-.2-.2zm-10.5 11.7c0 .4.1.4.2.3l-.1-.1s.1 0 .1-.1c-.1-.1-.1-.1-.2-.1zm-2.1-6.5v.2h.1v-.2h.1v-.1c-.1 0-.1-.1-.1-.1v-.1h-.1c0 .1 0 .1-.1.2l.1.1c-.1 0-.1 0 0 0-.1 0-.1 0 0 0zm-12.8 3.9c-.1-.1-.1-.2-.1-.2h-.2v.2h.3zm13.2-.1h.3v-.1c-.1 0-.2-.1-.3-.1v.2zm-22.5-21.4v-.1c-.1-.1-.2-.1-.3-.2l-.1.1.2.2h.2zm23.5 3.2h-.1c0 .1 0 .2.1.3h.2c-.1-.1-.1-.2-.2-.3zM246 209.1c-.1.2-.1.2.1.3.1-.2 0-.2-.1-.3zm-.7 43c.1 0 .2.1.2.1h.1c0-.1-.1-.2-.1-.3-.1.1-.2.1-.2.2zm27.9-5.7c.1 0 .1 0 .4-.3-.1 0-.2 0-.4.3zm8.2-.1v.3l.1.1v.1c.1-.2 0-.4-.1-.5zm-45.9-27.7c-.1-.1-.1-.2-.2-.3h-.1v.2s.2.1.3.1c0 .1 0 0 0 0zm-3.9.9c.1.1.2.1.3.2l.1-.1c-.1-.2-.2-.1-.4-.1zm27.9 17.5h.2v-.2h-.2v.2zm7.6 9.4h.3c-.1-.1-.1-.2-.2-.3 0 .2 0 .2-.1.3zm3.7-5.6h-.2v.2c.1.1.2.2.3.1 0-.1-.4 0-.1-.3zm-4.6-4.5c-.1 0-.2.1-.2.2s.1.1.1.1c.1-.1.1-.2.1-.3zm3.3-7.5c-.1 0-.1 0 0 0 0 .2 0 .2.1.3l.1-.1-.2-.2zm-33.3-1.9.1.1c.1 0 .2 0 .3.1-.1-.1-.2-.1-.3-.2 0-.1-.1-.1-.1 0zm30.7 9.1s0-.1-.1-.2h.2c0-.1-.1-.1-.1-.2-.1.1-.2.1-.2.1 0 .3 0 .3.2.3zm-25.2-9.1v-.1l-.1-.1c-.1.1-.2.1-.3.2.1 0 .2.1.3.1l.1-.1zm16.7 3c0 .2.1.3.3.3 0-.2-.2-.2-.3-.3zm-3.1 8.5c-.1.1-.2.1-.3.2.1.1.2.1.2.1.1-.1.1-.2.1-.3zm16.4-7c-.1-.1-.3-.1-.4-.2 0 0-.1 0-.1.1s.2.2.5.1zm-4.6 14c.3.1.7.3 1 .4v-.1c-.3 0-.6-.2-1-.3.1 0 .1 0 0 0zm-18.2-31.6c.1 0 .2 0 .4.1v-.1c-.1 0-.1-.1-.2-.1h-.3c.1 0 .1 0 .1.1zm-.8-6.5-.4-.4-.1.1.3.3h.2zM237.9 225s-.1 0 0 0c-.2.3 0 .3.1.4 0-.1 0-.2-.1-.4.1 0 0 0 0 0zm-4.1-11.7c.1 0 .2.1.3.1l.1-.1c0-.1-.1-.1-.2-.1 0-.1-.1 0-.2.1 0-.1 0-.1 0 0zm29 8.7c0 .3.1.3.4.2-.1-.1-.3-.2-.4-.2zm-5.8 17.6v.1c.1 0 .1.1.3.1v-.2h-.3zm-7.5-1.9h-.1v.1c.1.1.2.1.2.2.1-.1.1-.2-.1-.3zm19.7 5.8h.4v-.1c-.1-.1-.2-.1-.3-.2-.1.1-.1.2-.1.3zm-2.4-9.5c.1.1.1.1.2.1l.1-.1c0-.1 0-.2-.1-.2h-.2v.2zm9.3 10.9c0-.3 0-.3-.2-.3 0 .1.1.1.1.2-.1.1-.1.1.1.1zm-36.7-10.3c.1.1.3.2.4.3l.1-.1-.3-.3c-.1 0-.1.1-.2.1zm-5.1-6.5c-.1.1-.1.3-.1.4l.3-.3c0-.2-.1-.2-.2-.1zm-3.7-24.9c.1 0 .1 0 0 0 .1-.1.1-.2 0-.2s-.2 0-.3-.1v.1c.1.2.2.2.3.2zm49.7 42.9c.1-.2-.1-.3-.1-.5-.2.2 0 .3.1.5zm-46.4-21.2-.2-.2c-.1 0-.2.1-.3.2 0 0 0 .1.1.1.1-.1.2-.1.3-.2 0 .1 0 .1.1.1zm26.6-10.6c-.1-.1-.1-.2-.2-.3-.1.2-.1.3 0 .4 0 0 .1-.1.2-.1zm7.1 17.8c-.1-.2-.2-.2-.4-.2v.2h.4zm-27.4-14.9c0-.1 0-.1 0 0-.1-.1-.3-.2-.5-.3.1.2.2.3.5.3zm-8.8-3.7c-.1 0-.2-.1-.3-.1 0 .1 0 .1.1.2h-.1c0 .1.1.1.3-.1zm9.3 3.5c0 .3.2.2.3.2v-.1l-.1-.1v-.2h-.2c-.1.1-.1.2 0 .2zm-9.2-12.6-.2-.2c-.1 0-.2.1-.3.1.2.3.3.2.5.1zm9.5 25c-.1-.1-.1-.2-.2-.2 0 .1 0 .2-.1.3.1 0 .2 0 .3-.1 0 .1 0 0 0 0zm35.5 1.7c0 .1.2.1.5.1l-.2-.2c-.1 0-.2.1-.3.1zm-9.8 6.2.1.1h.1c-.1-.1 0-.3-.2-.3v.2zm-8.3-24.1v-.1c0-.1-.1-.1-.2 0 0 0-.1 0-.2.1l.1.1c.1 0 .2-.1.3-.1zm18.7 38.1c-.1 0-.1-.1-.1-.1-.1.1-.1.2-.2.3.1.1.2.2.3.1-.1-.1-.1-.2 0-.3zm-12.8-9.3c0-.2-.2-.2-.3-.2l-.1.1c.1.2.3.1.4.1zm1.4-3.5-.1-.1h-.1c0 .1-.1.2-.1.3.1 0 .2.1.3.1v-.3zm4.2 2.4h-.2v.1c.1.1.2.1.4.2v-.2s-.1 0-.1-.1c0 .1 0 0-.1 0zm-22.7-3.7c-.1-.1-.3-.1-.4 0-.1 0-.1.1-.2.2h.3s0-.1.1-.1.2-.1.2-.1zm28.8 23h.3c.1-.1.2-.2.3-.2l-.1-.1c-.2 0-.4.2-.5.3zm-3-23.5c0 .1 0 .2.1.2s.2-.1.3-.1c-.2-.2-.2-.2-.4-.1zm-6.4 2.6c.2.2.2.2.4.1-.2-.2-.2-.2-.4-.1zm-33.3-27.7c.1-.1.1-.2 0-.2h-.3v.2c.1 0 .3.1.3 0zm35.8 13c0-.1-.1-.2-.1-.2-.2-.1-.1.2-.2.2.1 0 .2.2.3 0zm-9 14.3s.1 0 .1-.1c0 0 0-.1-.1-.1s-.2-.1-.3-.1c0 .2.2.2.3.3zm10.9 21.7c0 .1-.1.2-.1.2v.1c0 .1.1.1.1.2h.1v-.3c-.1 0-.1-.1-.1-.2zm1.4-29.5c-.1-.2-.2.1-.4 0v.1c.1.1.2.1.3.2.1-.1.1-.2.1-.3zm-23.1-12.5c0 .1.1.1.2.2.1-.2.1-.3.1-.4 0-.1 0-.2-.1-.1s-.2.3-.2.3zm11.8 23.5c-.1 0-.1-.1-.2-.1-.1.4-.1.4.1.4.1-.1.1-.2.1-.3zm-24.2-18.4h-.2v.3c0 .1.2.1.2.1.2-.3.1-.4 0-.4zm4.5-7.3s.1-.1.1-.2l-.1-.1h-.2l.1.1-.1.1c0 .2.2.2.2.1zm36.1 22.3c-.1 0-.1 0 0 0-.1 0-.2 0-.3.1v.2c.1 0 .2 0 .3-.1v-.2zm-10.6 2.8-.4-.4c0 .1-.1.2-.1.3.2 0 .4.2.5.1zm-24.1-24c.1-.2.1-.2 0-.3 0 .1-.1.1-.1.2 0 0-.1 0-.1-.1v.1c0 .1.1.1.1.2l.1-.1zm21.2 21.6c.2.2.3.4.6.4-.1-.2-.3-.4-.6-.4zm-5.5-1.5s.1 0 .2.1v-.3h-.3c.1.1.1.2.1.2zm9.7-.6c-.1-.3-.2 0-.4 0v.1c.1.1.2.1.3.2 0-.2.1-.3.1-.3zm-17.1 17h.2c0-.1 0-.1-.1-.2s-.2-.1-.3-.2c0 .3 0 .4.2.4zm25.5-8.5c0 .3.1.3.3.4 0-.3-.1-.4-.3-.4zm-.5 10.6c-.1.1-.2.3 0 .4 0 0 .2 0 .2-.1.1-.2 0-.3-.2-.3zm-11-14.6c.2.4.3.4.4.2-.1-.1-.1-.4-.4-.2zm-22.5-24.6s.1 0 0 0c.2-.1.3-.2.3-.3 0 0 0-.1-.1-.1h-.1v.2c-.1 0-.1-.1-.1-.1v.3zm29.4 29.2c-.1 0-.1-.1-.2-.1-.1.2-.2.3-.3.5 0 0 0 .1.1.1 0 0 .1 0 .1-.1.1-.2.2-.3.3-.4zm-3.5-5.4c.1.1.2.2.3.2v.1c.1 0 .2-.1.3-.1-.1-.1-.4-.2-.6-.2zm-14.2 1.4c0-.2-.2-.4-.4-.3l.1.1h-.1c.1.1.2.2.4.2zm13.7 9.8c.1.1.2.2.2.4 0-.1.1-.3.1-.4v-.1c-.1 0-.2.1-.3.1zm-22.7-33.8c0 .1.4.2.5.2l-.4-.4s-.1.1-.1.2zm38.6 23.7h-.2v.1c.1.1.2.3.2.4h.1c-.1-.2.1-.4-.1-.5zm-18.9-1.3c0-.1.1-.1.1-.2s-.1-.2-.1-.2h-.1v.2c-.1-.1-.1-.2-.1-.2h-.1c.1.1.1.2.2.3l.1.1zm12.4-9.5s-.1 0-.1-.1l-.1.1c0 .1.1.2.1.2h.2c0-.1 0-.1-.1-.2.1.1 0 .1 0 0zM245 214.9c.1.1.2.1.3-.1-.2-.2-.3-.2-.6-.1.1.1.1.1.2.1 0 .1.1.1.1.1zm23.5 5.5c.2.2.3.2.4.1 0 0 0-.2-.1-.2s-.2-.1-.3-.1v.2zm7.5 35.2c0 .2.3.3.5.2-.2-.2-.3-.2-.5-.2zm-11.1-19.2c0 .2 0 .3-.1.5h.2c0-.1.1-.3.1-.4 0-.1-.1-.1-.2-.1zm-21.1-5.8c.1 0 .2.1.3.1 0-.3-.2-.4-.4-.5 0 .1 0 .1-.1.2H243.3s0 .1-.1.1c0 0 .1 0 .1-.1l.2.2h.1c.1.1.2.1.2 0zm28.3 18.2c-.1.1-.2-.1-.2-.1h-.2v.2c.1.2.3.2.4 0v-.1zm-31.5-32.1c-.2-.2-.4.1-.6.1l.2.2c.2 0 .3-.2.4-.3zm4.7-9.2.2.2c.1 0 .2-.1.3-.1l.2.2.1-.1-.3-.3c-.2 0-.3.1-.5.1zm-2.4 43.6c.1.1.2.1.4.2v-.1c.1-.1.1-.1.1-.2-.2-.1-.3-.1-.5.1zm-8.1-36.6v.2c.1 0 .2.1.2.1h.3c.1-.1-.2-.3-.5-.3zm-2.5 1c0 .1.1.2.1.3l-.1.1h.2c.1.1.1 0 .2-.1 0-.1-.2-.3-.4-.3zm16.9 37.7.1-.1c0-.1-.1-.2-.1-.3h-.3v-.1c-.1 0-.1-.1-.2-.1 0 0 0-.1.1-.1h-.1c0 .1-.1.2-.1.3.1 0 .2 0 .2.1s.1.1.1.1c0 .2.1.2.3.2zm9.1-33.5v.1h.1c-.1-.2 0-.5-.2-.6-.1.3-.1.3.1.4v.1zm14.8 15.5c.1.3.5.6.7.6-.3-.2-.3-.7-.7-.6zm7.6 8.2c-.1.1-.1.2-.1.3.2 0 .3.1.5.1-.1-.2-.2-.3-.2-.5 0 .1-.1.1-.2.1zm-20.2-28.9c0 .1-.1.2-.1.3.1.1.3.2.5.2 0-.3-.2-.4-.4-.5zm13.4 33.3h-.2v.4s0 .1.1.1h.1c.1-.1.1-.2.2-.2 0-.2-.1-.3-.2-.3zm2.4 6.9v.2c0 .2.1.2.2.2h.1c0-.2-.1-.3-.1-.5-.1.1-.2.1-.2.1zm-6.9-23.4h-.2c-.1 0-.1 0-.1.1v.1c.1.1.3.1.4.2v-.1c0-.1-.1-.1-.1-.2.1 0 .1-.1.2-.1h-.2zm2.9-11.2c-.1-.1-.2-.1-.3-.2-.1-.1-.2-.1-.2 0s-.2.2 0 .3c.1.1.3.1.4.1 0 0 .1-.1.1-.2zm-5.1 23.8c-.2 0-.2-.3-.4-.1l-.2-.2c-.1.1 0 .2.2.4 0 .1.3.1.4-.1zM242.5 218c-.1-.1-.2-.1-.3-.2 0 0-.1 0-.2.1 0 0 0 .1.1.1.1.1.1.1.2.1h.2s.1-.1 0-.1zm6.9 15.4s.1 0 0 0c0-.2 0-.3-.1-.4-.1-.2-.3 0-.4 0 .1.3.4.3.5.4zm-5.7-15.9c-.1-.2 0-.3.1-.3v-.1c-.1 0-.2-.1-.4-.1v-.1h-.1c0 .1-.1.1-.1.2.1.2.3.3.5.4zm8.6-2c-.1-.1-.2 0-.3 0-.3-.1-.5-.2-.8.1.2.1.4.1.6.1.1.2.2.2.4.1.1 0 .1-.1.1-.2.1 0 0-.1 0-.1zm17.9 17c-.1.1-.1.3-.2.4.2 0 .3.1.4.1l.1-.1c0-.2-.1-.3-.3-.4zm-.1-6.6c-.2-.3-.5-.3-.7-.4h-.1v.1c.1.2.6.4.8.3zm-18.3 15.9h-.2c.1.2.1.3.2.5h.2l.2-.2.1.1c-.2-.4-.2-.4-.5-.4zm2.5-24.6c-.1-.1-.2-.2-.4-.3h-.1v.2c0 .1.1.1.2.1 0 0 .1.1.1.2v-.1c.1 0 .1.1.1.1 0 .2 0 .2.2.1.1-.1 0-.2-.1-.3zm-11.9-8.9c.1.1.2.2.4.2.1 0 .2-.1.2-.2l.1-.1c-.1 0-.2-.1-.3-.1h-.3c0 .1-.1.2-.1.2zm13.7 13.5c-.1-.2-.3-.2-.5-.2-.2.1-.1.2-.1.4.4.1.5.1.6-.2zm-13.2-6.7c0-.1-.1-.2-.2-.3-.2 0-.3.2-.2.4.1.1.2.3.3.4.1-.1.1-.1.2-.1 0-.2-.1-.3-.1-.4zm-10.1-2.8c0 .1.1.1.1.2-.1.1-.1.2-.1.2.1.1.2.2.3.4h.1v-.2c.2 0 .3-.1.2-.2-.2-.3-.4-.4-.6-.4 0-.1 0-.1 0 0zm39.6 45.5c-.1 0-.2-.1-.2.1 0 0 0 .1-.1.1s-.1-.1-.1-.1c0 .2.2.4.4.3.1-.1.3-.1.4-.2-.1-.1-.2-.1-.3-.2h-.1zm3.5-21.5c.1 0 .1 0 .2.1.1 0 .1.1.2.1 0-.1.1-.1.1-.2s-.1-.2-.1-.3c-.1-.1-.2-.2-.4-.1.1 0 0 .2 0 .4 0-.1 0-.1 0 0zm1.4.2h-.3l.3.3c.1.1.1.2.2.2s.2 0 .3.1v-.4c0-.1-.1-.2-.2-.3-.2 0-.3.1-.3.1zm-8.3-4.4c0-.3-.2-.4-.5-.3v.1h-.1c-.1.1-.1.2-.2.2.1 0 .2.1.3.1v.2h.2v-.2h.2l.1-.1zm0 4c-.1-.2-.2-.2-.3-.1v.1s-.1 0-.1-.1c-.1-.1-.1-.1-.2-.1 0 .1 0 .2.1.3h-.1v.2h-.1v.1c.1 0 .3.1.5.1 0-.1-.1-.2-.1-.3h.1c0 .1 0 .1.1.2 0 .1.1.2.1.2.2 0 .4.1.7-.1l-.3-.3c-.2-.1-.3-.1-.4-.2zm8.3 3.6c.1-.1.1-.2 0-.3l-.2-.2c-.1 0-.2-.1-.3-.1-.1 0-.1.2-.1.2-.1.2.1.3.2.3.1.3.3.2.4.1zm-4.8-.5v.2l-.1.1c-.2-.1-.3.1-.5.1.2.1.3.1.5-.1.1.2.2.4.4.3.1 0 .2-.1.2-.2s0-.3-.1-.4-.2 0-.4 0zm-7.3.3c.2.2.3.3.5.1.1 0 .1-.1.1-.2v-.2c-.1 0-.1 0-.2.1-.1-.2-.3-.4-.5-.6h-.1c0 .1.1.1.1.2v.3c-.1.1-.1.1 0 .2.2-.1.2 0 .1.1.1-.1.1-.1 0 0zm4.8-7.5c-.1-.3-.1-.3-.4-.3-.1.2-.1.2-.6.2.2.1.1.2.1.3v.2c.1.3.3.2.5.2.1-.2.1-.4.2-.6.1.1.1 0 .2 0zm-36.9-18.4c0 .1.1.2.1.3-.1 0-.1.1-.2.1l.2.2s.1.1.2.1c0-.1.1-.1.1-.2 0 0 0-.1.1-.1.2.1.3.1.5.2h.1s.1 0 .1-.1v-.2h.2v-.1c-.3-.1-.5-.2-.8-.2 0 0 0-.1.1-.1-.4.1-.5.1-.7.1zm45.1 45.7c-.1-.1-.5-.1-.6 0-.1.1-.2.1-.3.2-.1.1-.2.4-.1.4.1.1.2.1.3 0 .3-.1.6-.4 1-.3-.2-.2.1-.3.2-.4 0-.1-.1-.1-.1-.2-.1 0-.4-.1-.4.3zM231 217.8c.1 0 .1 0 .2.1.2.1.3.2.5.3h.2v-.3c0-.1-.1-.1-.1-.2.2-.2.5-.5.8-.2 0-.1 0-.2-.1-.2-.1-.2-.2-.3-.3-.5-.1-.3-.2-.3-.5-.2-.1-.2 0-.2.2-.3-.1-.1-.2-.2-.3-.2-.1 0-.3 0-.3.1-.1.1.1.2.2.2h.1c0 .1-.1.1-.1.1l-.1.1c0 .1.1.1.1.2 0 0 0 .1.1.1h-.2c0 .2 0 .3-.2.3 0 0-.1 0-.1.1-.1.2-.1.3-.1.5zm22.9-13.3h.2v-.1h-.2v.1zm-15.6 16c.1 0 .2 0 .2.1v-.1c-.1 0-.1-.1-.2-.1v.1zm24.9 12.5c-.1-.1-.1-.2-.2-.2-.1.1-.1.1-.1.2h.3zm9.2-18.2c-.1-.2-.2-.2-.4 0h.4zm-18-21.4-.1-.1-.1.1.1.1s.1 0 .1-.1zm-20.3 28c-.1 0-.1 0-.2.1v.1h.3v-.1s0-.1-.1-.1zm39.2-14.4v-.2s-.1 0-.2-.1c.1.1.1.2.2.3zm-35.3-6.4c0-.1 0-.1 0 0h-.2s0 .1.1.1c0 0 0-.1.1-.1zm29.1 13.5v.1c.1.1.2.1.2 0-.1 0-.1 0-.2-.1zm-36.7-9.5c-.1 0-.1-.1-.2-.1 0 0-.1.1-.2.1h.4zm25.3 14.5c-.2 0-.2.1-.2.2h.1c0-.1.1-.2.1-.2zm-24.2-9.7c.1 0 .3-.1.4-.1-.3-.1-.3-.1-.4.1zm.6 17.7c.1-.1.2-.1.3-.2-.2-.1-.3 0-.3.2zm8.1-33.9c.1 0 .1 0 0 0l.1-.1c-.1 0-.1-.1-.2-.1l-.1.1c.1.1.2.1.2.1zm1.5 1.3h-.2v.2h.1c-.1 0 0-.1.1-.2zm-8.6 27v.1c.1 0 .1.1.2.1v-.1s-.1 0-.2-.1zm-6.7-12.4c.1 0 .2-.1.3-.1v-.1c-.1.1-.2.1-.3.2zm59.9 3.7c.1 0 .2 0 .3.1-.1-.1-.1-.2-.2-.2s-.1.1-.1.1zm-45.6 4.9c.1-.1.2-.2.3-.2h-.3v.2zm7.3 6.3s0-.1 0 0c0-.1-.1-.2-.2-.2v.1c0 .1.1.1.2.1zm17.1-19.4c-.1 0-.1-.1-.2-.1 0 .1.1.1.1.2.1 0 .2-.1.1-.1zm15.7-6.3c0 .1.1.1.1.2l.2-.2h-.3zM239 234.4s0-.1 0 0c-.1-.1-.3-.1-.4-.1h.2c.1.1.1.1.2.1zm9.3-11.4h-.2v.1c.1 0 .1 0 .2.1v-.2zm12.1-8.2c-.1-.1-.1-.1-.2-.1 0 0 0 .1-.1.1.1.1.2.1.3 0zm-35.7-14.6c-.1-.1-.2-.1-.3 0v.1c.1 0 .2 0 .3-.1zm25.8 2.9h-.2v.1c.1 0 .1 0 .2-.1zm15.1 6.1c.1.1.1.1.1.2l.2-.2s0-.1-.1-.1-.1 0-.2.1zm-33.6 1.1s0-.1 0 0c-.1-.1-.3 0-.4 0 .1.2.2-.1.4 0zm2.6 17.8c.1.1.1.2.2.3.1-.2 0-.3-.2-.3zm35.4-20.6s-.1 0 0 0c0 .1 0 .2.1.2h.2c-.2-.1-.2-.2-.3-.2zm-53.9-3.2c-.1-.1-.2 0-.3-.1v.1c.1 0 .2.1.3.1v-.1zm22.3 11.6.1.1c.1.1.2.1.1-.1 0 0-.1-.1-.2 0 0-.1 0 0 0 0zm-3.5-11.8c-.1 0-.2 0-.2-.1v.1c0 .1.1.1.2 0 0 .1 0 0 0 0zm-12.8 7.4c0-.1-.1-.2-.3-.1.1.1.1.1.3.1-.1 0 0 0 0 0zm11.9 17.2h-.3c.2.2.3.2.3 0zm34.4-17.1c0 .1 0 .1-.1.2.1 0 .1-.1.2-.1v-.1h-.1c.1 0 .1 0 0 0zm-36.4-1.9h-.2s0 .1-.1.2c.2 0 .3 0 .3-.2.1.1 0 .1 0 0zm38.9 3.1c.1 0 .1.1.2.1 0-.1 0-.1.1-.2-.1 0-.2 0-.3.1 0-.1 0 0 0 0zm-3.3-.6s.1 0 .1-.1l-.1-.1h-.3c.1.1.2.2.3.2zm-30.4-4.6c.1 0 .2-.1.4-.1v-.1c-.2 0-.3.1-.4.2-.1-.1 0 0 0 0zm-4.3 6.1c.1 0 .2.1.2.1v-.1c-.1 0-.1-.1-.2-.1v.1zm-2.5 9.5c-.1 0-.1.1-.2.2.1 0 .2-.1.3-.1 0 0 0-.1-.1-.1zm33.5-14.4s0 .1 0 0c.2.1.3.1.5.1-.2-.1-.3-.1-.5-.1.1-.1 0 0 0 0zm-23.6 22.9c.1 0 .2-.1.2-.1v-.1h-.1c.1 0 .2-.1.3-.1-.1-.1-.2-.2-.2-.3h-.1v.3h-.2c.1.2.1.2.1.3zM224.5 209c-.1.1-.1.2-.2.4.1-.1.2-.1.2-.1v-.3zm2.1 10.7s0 .1 0 0c.1.1.1.1.2.1l.1-.1-.1-.1c0 .1-.1.1-.2.1zm50.6-8.2v.1h.2v-.1h-.2zm-15.2-11c.1 0 .2-.1.2-.1s0-.1-.1-.1h-.2v.1c.1-.1.2-.1.1.1zm-29.6-.3c.1 0 .1 0 .2-.1v-.1l-.1-.1c-.1 0-.1.1-.1.1-.1.1-.1.2 0 .2zm1.2 3.3-.1-.1-.1.1s0 .1.1.2c0-.1.1-.2.1-.2zm-4.2 5.2c.1 0 .3 0 .4.1-.1-.2-.2-.2-.4-.1zm8 22.5h-.1c0 .1 0 .2-.1.3.1 0 .2 0 .2-.1v-.2zm24-25s0-.1 0 0c-.1-.1-.2 0-.3 0l.1.1c.1 0 .2-.1.2-.1zm-9.9-4.7c-.1-.1-.2-.1-.3-.1 0 .3 0 .3.3.1zm16.2 8.1c-.1-.1-.1-.1-.3-.2v.2c.1.1.2 0 .3 0zm4.4-1.1-.2-.2c0 .1-.1.1 0 .2h.2c-.1 0-.1 0 0 0zm-17.1-9.7s-.1 0 0 0c-.1.1-.1.2-.1.3.3-.1.1-.2.1-.3zm7.3 25.6h-.3v.1h.2c.1 0 .1 0 .1-.1zm-29.8-15.9c-.1 0-.2-.1-.2-.1 0 .1 0 .1.1.2l.1-.1c0 .1 0 0 0 0zm25.3 5.9h-.3v.1h.3v-.1zm24.6-8c-.1 0-.1-.1-.2-.1l-.1.1.2.2c0-.1.1-.2.1-.2zm-1 1.7c.1 0 .2 0 .3.1v-.1c-.1-.2-.1-.2-.3 0zm-55.7 2.8s.1.1.1.2h.1c0-.1 0-.2.1-.2h-.1c-.1-.1-.2-.1-.2 0zm42.8-2.9c.3.1.3-.1.3-.1v-.1c-.1.1-.1.1-.3.2zm8.6 5.6h-.2v.1h.3c-.1 0-.1-.1-.1-.1zm-36-12.3-.2-.2-.1.1.2.2s0-.1.1-.1zm-20.1 16c-.1 0-.1-.1-.2-.1 0 0-.1.1-.1.2.1 0 .2 0 .3-.1-.1 0 0 0 0 0zm16.1 12.8c-.1-.1-.1-.1-.2-.1l-.1.1v.1c.1-.1.2-.1.3-.1zm23.4-25.6c0 .1.1.1.1.2l.1-.1c-.1-.1-.1-.3-.3-.3 0 .1 0 .2.1.2 0 .1 0 .1 0 0zm-31.1 2.8c.1-.1.3.2.4-.1-.1 0-.3.1-.4.1zm52.9 14.3c.1-.1.1-.2.1-.3 0 0-.1 0-.1-.1v.4zm-54.4-13.2c0-.1.1-.2.1-.3-.1 0-.1 0-.2.1 0 .1.1.1.1.2zm4.3-1.8v.2c.1 0 .3 0 .4-.1-.1 0-.1-.1-.2-.1h-.2zm.3 13c0 .1 0 .1-.1.2.2 0 .3-.1.4-.1h-.2c0-.1-.1-.1-.1-.1zm26.9-19.2c-.1-.1-.1-.2-.2-.2l-.1.1c0 .1.1.2.3.1zm-8.7-5.5h-.3v.1h.3v-.1zm-3.6 22.2c-.2-.2-.2-.2-.4 0h.4zm15.7.6c.1 0 .1-.1.2-.1 0 0 0-.1-.1-.1h-.3c.2.1.2.2.2.2zm-.9-5.8c-.1 0-.2.1-.4.1.3.1.3.1.4-.1zm-41.6-6.8s-.1-.1-.1-.2h-.1c0 .1-.1.2-.1.2l.1.1s.1 0 .2-.1zm17.3 26.4h.3v-.1c0-.1-.1-.1-.1-.2-.1.1-.1.2-.2.3zm32.5-17.8c-.1 0-.2 0-.2.2.1 0 .2-.1.3-.1-.1 0-.1-.1-.1-.1zm-36.8 13.4c.1.1.1.1 0 0 .2 0 .3 0 .3-.1-.1 0-.1-.1-.2-.1 0 .1 0 .2-.1.2zm-9.4-10.9h.3v-.1c-.1 0-.2-.1-.2-.1-.1 0-.1.1-.1.2zm-.7-.9c.2.1.2 0 .3-.2h-.2c-.1.1-.1.1-.1.2zm48.1-12.8h-.3c0 .2.1.2.3 0zm-45.4 15.3s0 .1.1.1h.3v-.1c-.2 0-.3-.1-.4 0 0-.1 0 0 0 0zm16.7-23.8c-.1 0-.1-.1-.2-.1s-.1.1-.1.2l.1.1c0-.1.1-.1.2-.2zm-11.3 16.1c-.1 0-.3 0-.4.1.3.1.3.1.4-.1zm-5.1-4.2c.1 0 .1-.1.2-.1h-.2v.1zm13.6 23.6c-.1 0-.2-.1-.4-.1.1.3.2.3.4.1zm-3.6-24.9c0-.1 0-.1 0 0l-.1-.1c-.1 0-.1.1-.2.1l.1.1c0-.1.1-.1.2-.1zm33-9.6c-.1-.2-.1-.2-.3 0 .1 0 .2.1.3 0zm-32.5 7.8c-.2-.1-.3-.1-.3.2.1-.1.2-.2.3-.2zm-7.2 6.4c-.2-.1-.3-.1-.4-.2 0 .3.2.3.4.2zM262 224c-.1 0-.1.1 0 .3.1-.1.2-.1.2-.2s-.1-.2-.2-.1zm-25.6-21.7s-.1-.1-.2-.1c.1.1.1.2.2.3.2 0 0-.1 0-.2zm24.6-3.8c.1-.1.2-.1.2-.1v-.1h-.3c.1.1.1.1.1.2zm-38.2 19.3v-.1s-.1-.1-.1 0c-.1 0-.1.1-.3.1.1 0 .2.1.3.1 0-.1.1-.1.1-.1zm57.4-6.9c0 .1-.1.2-.1.2s.1 0 .1.1l.2-.2c-.1 0-.1-.1-.2-.1zm-12.4-6.2c.1-.1.1-.1.1-.2s-.1-.1-.1-.1h-.2v.1c.2-.1.2 0 .2.2zm-23.9 2.8s0-.1.1-.2h-.3c0 .2.1.2.2.2zm-19.4 10.8c-.1 0-.1.1-.1.1l.1.1c.1-.1.2-.1.2-.2h-.2zm29.4-21.7c-.1-.1-.2 0-.4 0 0 .1.1.1.1.2.2-.1.2-.1.3-.2zM232 223.2c-.1.2-.4-.1-.5.3.2-.1.4-.2.5-.3zm33.5-12.3h-.2v.3c.2 0 .2-.1.2-.3zm13.9-9.9c.3 0 .3 0 .3-.2-.2-.1-.3 0-.3.2zm-55.5 10.6c.2.1.2-.1.3-.2-.2 0-.2 0-.3.2zm29-13.2c-.1 0-.2-.1-.4-.1.1.2.2.3.4.1zm16.6-4.5h.2v-.1h-.4v.1c.1-.1.2 0 .2 0zm1.1 16.4h-.2v-.2c-.1 0-.2.1-.3.1.4.2.4.2.5.1zm-6.5-3.5s-.1 0 0 0c-.1-.1-.2 0-.2 0s0-.1-.1-.1h-.1c0 .1.1.2.1.3.1 0 .2-.1.3-.2zm-7 12.4s-.1.1-.1.2c.1 0 .1.1.2.1l.2-.2c-.2 0-.2-.1-.3-.1zm10.1-10c-.1-.1-.1-.1 0 0h-.3c0 .1.1.1.2.2-.1-.1 0-.2.1-.2zm-32.7 1.2v-.1c-.1 0-.2 0-.3.1v.1c0-.1.2-.1.3-.1zm19.8-15.2s0 .1-.1.1c.1.1.2.1.2.2 0-.1.1-.1.1-.2 0 0-.1 0-.2-.1zm-25.5 5.5c.1.3.1.3.3.2 0-.2-.2-.2-.3-.2zM260 233c.1 0 .2-.1.3-.1v-.1c-.1 0-.2-.1-.4-.2.1.3.1.3.1.4zm16.5-25.4c-.1 0-.1.1 0 .5.1 0 .1 0 0-.5zm6.4-5.4c-.1-.2-.3-.3-.4-.3.1.1.1.2.2.2 0 .1 0 .1.2.1-.1 0 0 0 0 0zm-54.8 13.4s0-.1 0 0c-.1-.1-.2-.1-.3-.1v.1c.1 0 .1.1.2.1s0-.1.1-.1zm-2.2 3.5c.1 0 .2-.1.3-.1 0-.1 0-.1-.1-.1-.1-.1-.2 0-.2.2zm33.5-7.8c.1 0 .1-.1.2-.1-.1 0-.1-.1-.2-.1-.1.1-.1.1-.2.1.1 0 .2.1.2.1zm12.6 1.3.2-.2v-.1c-.1 0-.2 0-.4-.1.1.3.1.3.2.4zm-1.5-6.5c.1 0 .2 0 .3-.1-.1-.1-.3.2-.3-.2l-.1.1c0 .1.1.2.1.2zm-6.7 0h.2c0-.1-.1-.2-.1-.3h-.1c0 .1-.1.2 0 .3zm-2.8-8.3h-.3v.1h.3v-.1zm-25.9 23.1c-.1 0-.2.1-.3.1l-.1.1h.2l.2-.2zm29-15.8c-.1 0-.1 0-.2-.1.1 0 .1-.1.2-.1-.1 0-.2-.1-.2-.1 0 .1-.1.2-.1.3.2.1.2.1.3 0zM238.5 217c0 .1 0 .2-.1.3.1 0 .2-.1.3-.1l.1-.1-.1-.1h-.2zm15.2-10.1c-.1-.2-.3-.1-.4 0 .2.2.3.2.4 0zm10.5-8.8c-.2.1-.3.1-.4.1v.1c.1.2.3.1.4-.2zm-20.8-2.8c.1 0 .2-.1.3-.1-.1-.1-.2-.1-.3-.2 0 0-.1 0-.1.1s.1.2.1.2zm28.9 16.2c0-.1-.1-.1 0 0-.4.1-.7.2-1 .4v.1c.3-.3.6-.4 1-.5zm-37.5-9.8c-.1-.1-.2-.1-.2 0-.1 0-.1.1-.2.2l.1.1.3-.3zm-5.9-3.7c.1 0 .1-.1.2-.1-.2 0-.4.1-.6.1v.1c.1-.1.3-.1.4-.1zm6 20.6-.2-.2h-.1v.1c.1.3.2.2.3.1zm-11.7-5.9v-.1h-.2s0 .1-.1.2h.1c0-.1.1-.1.2-.1zm28-15.1c-.2.1-.3.1-.4.2.2.2.3.1.4-.2zm8.3 17.5s0 .1 0 0v.2c.1.1.2.1.2.1v-.3c.1 0 .1-.1.2-.1l-.2-.2c-.1.2-.2.3-.2.3zm-7.1 4.2.1.1h.3c-.1-.2-.2-.2-.4-.2.1 0 .1.1 0 .1zm19.2-10.6s0-.1 0 0c-.1-.1-.3 0-.4 0 0 .1.1.2.1.3.1-.2.2-.2.3-.3zm-8.8-5.2c-.1 0-.1-.1-.2-.1 0 0-.1.1-.1.2l.1.1s.1 0 .2-.2c0 .1 0 .1 0 0zm14.7 1.3c-.2-.2-.3-.2-.4-.1.1 0 .1.1.2.1.1.2.1.2.2 0zm-34.7 19.4v.2c.2 0 .3-.1.5-.1v-.1h-.5zm-8.5-.4v-.5c-.1 0-.2 0-.2.1 0 .2.1.4.2.4zm-21.2-16.1v-.1s-.1-.1-.1 0c-.1.1-.2.1-.3.2v.1c.2 0 .3 0 .4-.2zm68.4-5.1c-.1-.3-.3-.2-.5-.3 0 .4.3.2.5.3zm-49.9 18.8h-.3c-.1.1-.1.2-.1.4h.1c0-.1 0-.2.1-.3 0-.1.1-.1.2-.1zm11.7-27.4s.1-.1.1-.2c-.2 0-.3 0-.4-.1 0 .2.1.3.3.3zm18.1 7.9.3-.3c-.2-.1-.3 0-.4.1 0 .2.1.2.1.2zm-30.9 9.1c0-.1 0-.1 0 0-.2 0-.4.1-.6.2.3 0 .4 0 .6-.2zm-9.2 3.7c-.1 0-.2.1-.3.1.1.1.1.1.2.1-.1 0-.1 0-.1.1.1.1.2.1.2-.3zm9.8-4.3c-.1 0-.1 0 0 0h-.2c-.1-.1-.1-.1-.2-.1s-.1.1-.1.1c0 .1.1.1.2.1h.1c.1.2.1 0 .2-.1zm-16.4-2.4h-.3c0 .1-.1.2-.1.3.3.1.3-.1.4-.3zm25.4 11.4h-.3c.1.1.1.2.1.3.1-.1.2-.1.2-.2.1 0 0-.1 0-.1zM268 194h-.3c-.1.1-.1.2-.1.3.1.1.3-.1.4-.3zm-3.1 12.2h.2l.1-.1c-.1 0-.2-.2-.4-.1 0 .1 0 .1.1.2zM241 194.6s0-.1-.1-.1c-.1-.1-.1 0-.2.1 0 .1-.1.1-.1.2h.2c.2 0 .2-.2.2-.2zm41.9 14.3h-.2c0 .1 0 .2.1.3.2 0 .3 0 .3-.2-.1.1-.2 0-.2-.1zm-16.3 2.5c-.2-.1-.3 0-.4.1v.2c.3 0 .3-.1.4-.3zm-1.7-3.6s0 .1 0 0c0 .2 0 .2.1.4.1 0 .2-.1.3-.1l-.2-.2c-.1-.1-.1-.1-.2-.1zm5.4-1.3c-.1-.1-.1-.1-.1-.2h-.1c0 .1-.1.1-.1.1l-.1.1v.1c.1 0 .3 0 .4-.1zm-19.9 14.4v-.1c0-.1 0-.1.1-.2h-.1c-.1.1-.2.2-.2.3v.3c0-.1.1-.2.2-.3zm38.4-5.3c-.1.2-.1.4-.1.7.1-.1.2-.2.2-.3 0-.2-.1-.3-.1-.4zm-19.4-14.4c.1-.1.1-.2.1-.3-.3 0-.3 0-.4.2.1.1.2.2.3.1zm-3 6.6c.3 0 .3 0 .4-.3-.4 0-.4 0-.4.3zm-45.1 4.2c0-.1-.1-.2-.2-.2s-.1.1-.2.2c.1.1.2.1.2.1.1 0 .2-.1.2-.1zm35.8-16.8c.1-.1.3 0 .3-.2 0-.1-.2-.1-.3-.1-.3.1 0 .2 0 .3zm3.7 17c.1.3.2.1.4.1 0 0 .1-.1.1-.2l-.1-.1c-.2.1-.3.1-.4.2zm24.5 8c0 .1 0 .2.1.3l.1.1h.2s0-.1.1-.1c-.1-.1-.2-.1-.2-.2-.2 0-.3 0-.3-.1zm-20.5-22.5c-.1-.1-.1-.2-.2-.3-.3-.1-.1.3-.2.3v.1c.2-.1.3-.1.4-.1zm-26.6 7.3c0 .1 0 .2.1.3 0 .1.2 0 .3.1-.1-.2-.1-.3-.2-.4 0 0-.1-.1-.2 0zm-5.4 13.2c-.1 0-.1.1-.2.1.1.1.1.2.2.2s.1-.1.2-.1c.1-.2-.1-.2-.2-.2zm-2.2-8.5c.2.1.2-.1.3-.2 0 0 0-.1-.1-.2h-.2c-.1 0-.1.1-.2.2h.1c.1.1.1.1.1.2zm43.3-10.1c.1-.1.1-.2.2-.2 0 0-.1-.1-.1-.2h-.1c0 .1-.1.2-.1.3-.1.1 0 .1.1.1zm-5.7 9.5h-.5c.1.1.1.2.2.3 0-.1.2-.1.3-.3zm-35.8 0c0 .1 0 .1.1.2h-.2c0 .1 0 .1.1.1s.1.1.2.1V209.2c.1-.1 0-.1-.2-.1zm31.8.4c.2 0 .5.1.7-.1-.2-.1-.4-.1-.7.1zm-5.1 2.7-.2.2c.1.1.1.2.2.2 0 0 .1-.1.2-.1 0-.2-.1-.2-.2-.3zm6.7-7.3c-.3-.1-.1.2-.3.2v.1c.1 0 .2 0 .3-.1v-.2zm0 25.1c-.1 0-.1-.1-.2-.1s-.2.1-.3.1c.1.2.2.2.4.1.1 0 .1-.1.1-.1zm12.5-25.1c.2.2.3.1.6.1-.3-.3-.5-.3-.6-.1zm7.4 8.2c0 .2 0 .4.3.3l.1-.2c-.1-.2-.2-.2-.4-.1zm-20.2-8.8s0 .1 0 0c.2 0 .3-.1.5-.2-.3-.2-.4-.2-.5-.1l.2.2c-.2 0-.2.1-.2.1zm1.3 6.2c.4.1.5.1.4-.2-.1 0-.3-.1-.4.2zm-34.7-1.5c.1-.2.1-.3 0-.4 0 0-.1 0-.2-.1h-.1c.1 0 .1.1.1.1-.1 0-.1 0-.2.1.2.1.3.2.4.3zm43-.2c0 .2.1.3.1.6h.1v-.6h-.2zm-6.3-1.4c.1 0 .3 0 .4-.1l.1.1c0-.1.1-.2.1-.3-.2 0-.5.1-.6.3zm-9.5 11.6c-.1-.2-.5-.1-.6 0h.2l-.1.1c.2 0 .3 0 .5-.1zm17.8-2.9c-.1-.1-.1-.2-.2-.4h-.1c-.1.1-.1.2-.2.3.2.1.3.1.5.1zm-42.2-8.3c.1.1.4-.1.5-.2h-.6c.1.1.1.2.1.2zm46.4-10.7s0-.1 0 0c-.1-.2-.1-.4-.3-.4-.1 0-.1.1-.2.2v.1c.1 0 .3 0 .5.1zM266 209.8c0-.1 0-.2-.1-.2-.1-.1-.2-.1-.3-.1v.1s.1.1.1.2c-.1 0-.2 0-.3-.1v.1c.1 0 .2.1.4.1 0 0 .1-.1.2-.1zm2.3-15.9c.1 0 .1-.1.2-.2-.1 0-.1-.1-.2-.1h-.2s-.1 0-.2.1c0 .1 0 .1.1.1.2.1.3.1.3.1zm-35.9 11.8c.2 0 .2-.1.2-.2-.3 0-.4.1-.5.3h.2s0-.1.1-.1zm21.8-13.6s-.1-.1-.2-.1-.2.1-.3.2c0 .1.1.1.1.1.3 0 .4-.1.4-.2zm31.1 20.8c.2.1.4.1.5-.2-.3-.1-.4-.1-.5.2zm-21.9-5.8c-.1-.1-.1-.3-.2-.4-.1 0-.2.1-.3.1.1.1.2.3.3.4.1 0 .1-.1.2-.1zm-20.3 11.3v-.3l-.1-.1c-.1.1-.2.1-.2.2s0 .1-.1.2h.4c-.1 0-.1 0 0 0zm34.1-7.3c.2 0 .3-.1.3-.3l-.1-.1c0 .2-.2.1-.2.1-.1 0-.1.1-.1.1-.1.1 0 .1.1.2zm-47.1-.2h.3c.2-.1.1-.3.1-.5-.4-.1-.2.3-.4.5zm-2.5-11.2h.3v-.1h-.4c-.1 0-.2.2-.3.3h.3s.1-.1.1-.2zm30.3 33.9c-.3.1-.4.2-.3.5.1-.1.3-.1.4-.1v-.1c-.1-.1-.1-.2-.1-.3zm-33.2-20.5c.1 0 .2-.1.3-.1.1 0 .1-.1.2-.2-.1-.1-.5-.1-.6.1 0 .1 0 .2.1.2zm-1.3 2.5c.1.1.2.1.3.1v.1s.1 0 .1-.1l.1-.1c.1 0 .1-.1.1-.2-.1 0-.4.1-.6.2zm40.3 15.2c-.1-.1-.2-.1-.3-.1-.1 0-.1.2-.2.3.1 0 .1 0 .2.1.1.2.2.1.3 0v-.3zm-18.1-31.5s.1 0 .1.1c0 0 0 .1.1.1l.1-.1c-.2-.1-.4-.4-.7-.3.1.2.1.2.4.2zm22.5.6c.3.1.8.1 1 0-.4-.1-.7-.3-1 0zm11.7.4c0 .1.1.2.1.3.2-.1.3-.2.5-.3-.2-.1-.4-.1-.5-.2 0 .1-.1.2-.1.2zm-35.6-6.3c-.2-.2-.4-.1-.6-.1 0 .1.1.2.1.3.2 0 .4 0 .5-.2zm34 15.1.1-.1c0-.1 0-.2-.1-.3 0-.2-.1-.2-.3-.1-.1 0-.1.1-.1.1l.3.3c0 .1.1.1.1.1zm7.2 3c-.2-.1-.3-.2-.5-.3 0 .1-.1.1-.1.2.1.1.1.1.1.2.1.2.2 0 .3 0 .1 0 .2-.1.2-.1zm-23-11.9c.2 0 .3-.1.5-.2v-.1h-.2c0-.1.1-.1.1-.2-.1 0-.2 0-.2.1l-.2.2v.2c-.1-.1 0 0 0 0zm-6.3-10.5c.1 0 .3-.1.4-.2 0-.1-.1-.1-.1-.2-.1 0-.2.1-.4 0-.1 0-.2.1-.1.1.1.2 0 .4.2.3zm13.8 21.4c.2 0 .3-.2.3-.4-.1.1-.4 0-.4.2h-.3c-.1.2.1.3.4.2zm-37.1-1.2c-.1 0-.2 0-.4.1 0 0-.1.1-.1.2 0 0 .1 0 .1.1h.3c.1 0 .1-.1.2-.1 0-.2 0-.3-.1-.3zm16.5 6.3c0-.1 0-.1 0 0-.1-.2-.2-.3-.4-.3s-.2.2-.3.3c.3.1.5 0 .7 0zm-15.9-7.6c-.2 0-.2-.2-.2-.3-.1.1-.2.1-.3.2l-.1-.1h-.1c0 .1 0 .1.1.2.1.2.3.1.6 0zm5-7.6v-.2h-.2c-.2.1-.2.3-.3.4.3.1.4 0 .5-.2zm25.8-.5c.1-.1.3-.2.4-.3v-.1c-.1-.1-.3-.1-.5-.1 0 .2 0 .3.1.5zm-5.9-4.8c.1 0 .7-.2.8-.4-.3-.1-.6.1-.8.2-.1 0-.1.1 0 .2-.1-.1-.1 0 0 0zm-1 24.9s-.1.1-.2.1c.2.1.3.2.5.2l.1-.1v-.3h.2c-.4-.1-.4-.1-.6.1zm-16.7-19.8c.1 0 .2 0 .3-.1h.3s-.1 0-.1-.1h.2c.1.1.1.1.2-.1-.2 0-.3-.1-.5-.1s-.3 0-.5.1v.1c-.1.1 0 .2.1.2zm-14.5 1.9c.1 0 0-.2 0-.3v-.2c-.1 0-.2.1-.3.1-.1.1-.2.1-.2.2v.2h.5zm19.3.5c.3-.2.4-.3.3-.6-.2-.1-.4 0-.4.2-.2.2 0 .3.1.4zm-14.7 4.6c.1.1.4 0 .5 0v-.2c-.1-.1-.2-.1-.3-.2-.1 0-.2-.1-.3-.1-.1.2 0 .4.1.5zm-9.2 5.1c.1.1.1.2.2.2s.3 0 .5.1v-.1c-.1 0-.1-.1-.2-.1.1-.1.1-.3 0-.3-.2 0-.4 0-.5.1-.1 0-.1 0 0 .1-.1 0-.1 0 0 0zm62.7 4.2c-.1.1-.3.1-.1.3v.1h-.2c.1.2.4.2.5-.1.1-.1.1-.3.2-.5-.1 0-.2 0-.4.1.1.1 0 .1 0 .1zm-13.3-18.5c.1-.1.2-.1.3-.1.1 0 .2 0 .2-.1s0-.2-.1-.2c-.1-.1-.2-.1-.4-.1s-.3 0-.4.2c.3 0 .3.2.4.3zm1.8-.5c.1 0 .2-.1.3-.2-.1 0-.1-.1-.2-.1s-.1-.1-.2-.1-.2-.1-.3-.1c0 0-.1.1-.1.2-.1.1-.1.2-.2.3h.7zm-10.4 2.9v.3c.1 0 .2-.1.3-.1 0 0 .1.1.2.1.1-.1.1-.1.2-.1-.1-.1-.1-.1-.2-.1l.2-.2c0-.1-.1-.2-.1-.2-.3-.2-.4-.1-.6.2-.1 0 0 0 0 .1 0 0-.1 0 0 0zm3.8 3.1c.2-.1.4-.2.4-.5-.2 0-.3 0-.5.1-.1 0-.2.1-.3 0-.2-.1-.3 0-.3.2.2.1.3.2.4.2.2-.1.3 0 .3 0zm8.2-4.2h-.3c-.1 0-.2.1-.3.2s.1.2.1.2c.1.2.3.1.4.1.2-.1.2-.2.2-.3.1-.1 0-.2-.1-.2zm-3.5 3.7c.2.1.5.1.5 0s.1-.2 0-.3c-.1-.1-.2-.2-.3-.2-.1 0-.2.1-.4.1.1.1.1.1.1.2 0 0 0 .1.1.2-.3 0-.2.2-.3.4.2-.1.3-.2.3-.4zm-6 4.7c.1 0 .1.1.2.1l.2.2c0 .1 0 .1.2.1h.1v.1c.3 0 .4 0 .5-.3 0-.1 0-.1-.1-.2 0-.1-.1-.1-.1-.2 0 .1-.1.1-.1.2h-.9zm-2.1-7.8c.2-.1.2.1.3.1 0 .1.1.1.2.1.2.1.3-.1.5-.2l-.3-.6c0-.1.1-.1.1-.2-.3-.1-.4-.1-.5.1.1.3.1.3-.3.7zM222.8 214h.4c0-.1 0-.1-.1-.2 0 0 0-.1-.1-.1.2-.1.4-.1.5-.2h.1l.1-.1c-.1-.1-.1-.1-.2-.1.1 0 .1-.1.2-.1v-.1c-.3.1-.5.3-.8.4v-.1c-.1.2-.2.3-.3.4.1 0 .2.1.3.1 0-.1 0 0-.1.1zm67.3-.2c-.3 0-.2-.3-.2-.4h-.2c0 .2-.3.3 0 .5-.2 0-.5.3-.5.4v.4c0 .1.1.4.2.4.2 0 .2-.1.3-.2 0-.4 0-.8.4-1.1zm-65 3.1c-.1-.1-.1-.1-.2-.1-.2 0-.4-.1-.6-.2-.3-.1-.4-.1-.5.2-.2-.1-.2-.2-.1-.3h.1c.1 0 .2 0 .3-.1h.3s-.1 0-.1-.1h.2c.1.1.1.1.2-.1-.2 0-.4-.1-.5-.1-.2 0-.3 0-.5.1v.1l.1.1c-.1 0-.2 0-.3.1-.1.1-.2.2-.1.3.1.1.2.1.3 0h.1v.2c0 .1-.1.2 0 .2s.2.1.2.1h.1s0 .1-.1.1h-.1c.1.1.2.2.1.3v.1l.3.3c.1 0 .1-.1.2-.1.2-.1.4-.1.6-.2.1 0 .1-.1.1-.1 0-.1-.1-.2-.2-.2h-.2c-.2-.2-.2-.6.3-.6zm18.8 27.5c0-.1-.1-.1-.1-.2l-.1.1c0 .1 0 .1.2.1-.1.1-.1 0 0 0zm-21.7.2c0 .1.1.1.1.2h.1c0-.1-.1-.1-.1-.2s0 0-.1 0zm8.4 25.4v-.3h-.2c.1.1.1.2.2.3zm18.3-6.3c.1.1.2.1.3.2 0-.2-.1-.2-.3-.2zm2.5-26.6h-.2v.1h.1c.1 0 .1-.1.1-.1zm-32.8 5.2s0 .1 0 0c0 .1.1.2.2.2h.1s0-.1-.1-.1c-.1-.1-.1-.1-.2-.1zm36.6 16.8s0-.1-.1-.2c0 .1-.1.2-.1.3.1 0 .2 0 .2-.1zm-19.7-28.3h-.2v.1s.1 0 .2-.1c0 .1 0 .1 0 0zm10.5 29s-.1 0 0 0c-.1.2-.1.3.1.3v-.2c-.1 0-.1-.1-.1-.1zm-18.4-31.3v-.2h-.2l.2.2zm7.1 26.9c0 .1 0 .1 0 0 .1.1.2 0 .3 0-.1-.1-.2-.1-.3 0zm-9.5-22.9c.1.1.2.1.3.2-.2-.3-.2-.3-.3-.2zm-11.6 12.3c.1 0 .2 0 .3.1-.1-.2-.2-.2-.3-.1zm28.4-17.5h-.1v.2h.2c0-.1 0-.2-.1-.2zm-.3 2.1h.3c-.1-.1-.1-.1-.1-.2-.1 0-.1 0-.2.2 0-.1 0-.1 0 0zM218 241.8c0 .1 0 .1.1.2h.1l-.2-.2zm3.8-13c.1 0 .2.1.3.1v-.1h-.3c.1 0 .1 0 0 0zm38.2 43.4v-.3c-.1 0-.1.1-.2.1.1 0 .1.1.2.2zm-34-28-.2.2h.3c0-.1-.1-.2-.1-.2zm.5 9.3c0-.1 0-.1-.1-.2h-.1c0 .1.1.2.2.2-.1 0 0 0 0 0zm24.6-1.7c-.1 0-.1 0 0 0-.1.1-.1.1-.1.3.1 0 .2-.1.2-.1-.1 0-.1-.1-.1-.2zm14.8 6.9h.2v-.1c-.1 0-.1-.1-.2-.2v.3zm-52.8-4.5c0 .1.1.1.1.2l.1.1c0-.2-.1-.3-.2-.3 0-.1 0 0 0 0zm14-1.2c0 .1.1.1.1.2l.1-.1s-.1-.1-.2-.1c.1 0 0 0 0 0zm13.8 2.5h-.1v.1c.1 0 .1.1.2.1v-.1l-.1-.1zm-14.2-33.9-.2-.2s0 .1-.1.1c.1.1.2.1.3.1zm15.3 19.5h.2v-.1c-.1 0-.1 0-.2.1 0-.1 0 0 0 0zm6.6 14.4c-.1 0-.1-.1-.2-.1v.2s.1 0 .2-.1c-.1.1 0 .1 0 0zm-23.8-22.1c.1 0 .1 0 0 0l-.3-.3c0 .3.3.1.3.3zm-10.3 14.2c.2-.1.2-.2.1-.3 0 .1 0 .2-.1.3zm38 10s0-.1 0 0c0-.1 0-.2-.1-.3h-.1v.2c.1 0 .1 0 .2.1zm-34.6-39.2c.1.1.1.2.2.3 0 0 .1 0 .1-.1 0-.2-.2-.2-.3-.2 0-.1 0 0 0 0zm7.5 23.1v.2c0 .2.1.2.1 0 .1 0 0-.1-.1-.2.1 0 0 0 0 0zm5.5-10.5c-.1 0-.1 0 0 0-.1.1 0 .2 0 .3h.1c-.1-.2-.1-.2-.1-.3zm-13.7-3.8v.3h.1c.1-.1.1-.2-.1-.3zm-3.4 20-.2-.2c0 .3.1.3.2.2zm34.8 11.8c-.1 0-.1.1-.2.1.1 0 .1.1.2.1l.1-.1-.1-.1c.1 0 0 0 0 0zm-23.5-26.1s-.1 0-.2.1c.1.1.2.1.3.1l.1-.1c-.1 0-.2 0-.2-.1zm24.4 28.6v.2c.1 0 .1 0 .2-.1-.1 0-.1-.1-.2-.1zm-1.9-2.9c0 .1 0 .2.1.2 0 0 .1 0 .1.1v-.1c-.1-.1-.2-.1-.2-.2zm-17.1-23.4c-.1-.1-.2-.1-.3-.2v.1c.1 0 .2.1.3.1zm-7.4 1.2c0 .1.1.1.1.2l.1-.1c0-.1 0-.1-.2-.1.1-.1.1-.1 0 0zm-8.3 4.7c.1.1.2.1.3.2 0-.1 0-.2-.1-.2h-.2zm32.9 13.3c-.1-.1-.1-.2-.1-.3h-.1v.1l.2.2zm-31.7-.9c.1 0 .2.1.2.1l.1-.1-.2-.2c0 .1 0 .1-.1.2zm4.3-25.9c.1 0 .2.1.2.1.1 0 .1-.1.2-.2v-.1c-.2 0-.2.1-.4.2zm-5.5 8.6c0 .1 0 .1.1.2h.2v-.1c-.1-.1-.2-.1-.3-.1zm39.7 28.8c.1 0 .1.1.2.1 0 0 0-.1.1-.1l-.2-.2c0 .2-.1.2-.1.2zm-2.8-17.9s0 .1 0 0c.1 0 .2.1.2 0s.1-.1.1-.1c0-.1-.1-.1-.1-.2h-.1c.1.2.1.3-.1.3zm-19.6-20.2v-.2h-.2v.1c0 .1.1.1.2.1zm-1.6 2.8h-.1v.2h.2c-.1 0-.1-.2-.1-.2zm-6.4.9c.1.1.1.2.2.3.1-.2.1-.3-.2-.3zm-9.8 20.6-.2.2c.1 0 .1.1.1.1.1-.1.1-.2.1-.3.1 0 0 0 0 0zm33-.6h.2v-.1c-.1 0-.2 0-.2-.1v.2zm-3.4-9.9c0-.1-.1-.2-.1-.3-.2.2-.1.3.1.3zm5.5 16.2c-.1.1-.1.1-.1.2.1 0 .1.1.2.1l.1-.1c-.1-.1-.2-.1-.2-.2zm3.6 2.3v.2h.1v-.2c0-.1-.1 0-.1 0zm-4.8-18c-.1 0-.1 0 0 0-.1 0-.2.1-.3.1.2.2.2 0 .3-.1zm-12.5 22.1c0 .1-.1.1 0 0 0 .1 0 .2.1.2h.1v-.1c-.1 0-.2 0-.2-.1zm-9.5-30.8c.1 0 .1.1.2.1h.1c0-.1 0-.2-.1-.2h-.1s-.1 0-.1.1zm13.1 21.1.2.2s.1 0 .1-.1c-.1-.1-.1-.1-.3-.1.1-.1 0-.1 0 0zm22.2 11.1h-.1v.2h.2s0-.1-.1-.2zm-1.5.9c0-.2 0-.2-.2-.2 0 .1.1.2.2.2 0 .1 0 .1 0 0zm-39.8-36.1v.2c.1 0 .1-.1.2-.1v-.1h-.2zm31.2 27.2c-.1 0-.2 0-.3-.1.1.4.2.2.3.1 0 .1 0 .1 0 0zm1.5 9.5.2.2.1-.1c-.1-.1-.1-.2-.3-.1.1-.1.1-.1 0 0zm-15.8-33h-.1v.2h.1v-.2zm-24.7-2.7.2.2h.1c0-.1 0-.2-.1-.2 0-.1-.1 0-.2 0zm2.3 19.5s0 .1 0 0c0 .1.1.2.2.3h.1c0-.1 0-.2-.1-.2 0-.1-.1-.1-.2-.1zm33.4-.9c0-.1.1-.3 0-.4 0 .1-.1.1-.1.2h.1c0 .1-.1.1-.1.2h.1zm-22.6-19.2c-.1-.1-.2-.1-.3-.2 0 0 0 .3.3.2zm25.7 45.3s.1 0 0 0c.1 0 .2 0 .3-.1 0 0 0-.1-.1-.1l-.2.2zm-27.8-45.8c.1-.1.2-.1.2-.1v-.1c-.1 0-.1-.1-.2-.1v.3zm4.1 1.7-.1.1c.1.1.2.1.3.2 0-.1-.1-.1-.1-.2l-.1-.1zm-8.6 8.9c-.1 0-.1.1-.2.1.1.1.2.1.3.2l-.1-.1c.1-.1.1-.1 0-.2zm31.2 5.3v-.3h-.1c-.1.1-.1.2.1.3zm-2.2-9.6-.2-.2s-.1 0-.1.1c.1 0 .2.1.3.1 0 .1 0 0 0 0zm-17.7 12.4c.1.1.2.1.3.2 0-.3 0-.3-.3-.2zm10.5 11.3h.2v-.1c-.1 0-.1-.1-.2-.2v.3zm3.3-4.6c-.1-.1-.2-.1-.3-.2.1.3.1.3.3.2zm-23.8-32.9c.1 0 .2.1.2 0 0 0 0-.1.1-.2h-.1c-.1.1-.2.1-.2.2zm-5.7 29.9c.1 0 .1 0 0 0 .1-.1.1-.2.1-.2h-.3c.1 0 .2.1.2.2zm33.5 9.8c.1 0 .2.1.3.1v-.1c-.1-.1-.2-.2-.3 0zm-33.6-15.9v.1c.1 0 .2 0 .3.1 0-.1 0-.1-.1-.2h-.2zm1.2-13.6c0-.1 0-.1 0 0v-.3c-.1 0-.1.1-.1.1s0 .1.1.2zm.2-1.3c-.1 0-.1-.1-.2-.1l-.1.1c.1.2.2.2.3 0zm40.8 24c-.1-.1-.1-.2-.2-.2 0 .2 0 .2.2.2zm-40.7-20.2c-.1-.1-.1-.2-.2-.2h-.1v.1c.1 0 .2.1.3.1zm26.8-5.2c0 .1 0 .1 0 0 .1.1.2.1.3.1 0-.1 0-.1-.1-.2 0 .1-.1.1-.2.1zm-18.5 3.1c.1.3.1.3.3.2-.1 0-.2-.1-.3-.2zm-.2-6.2c-.1.1-.1.2-.1.2h.2v-.1s-.1 0-.1-.1zm-6.8 25.4c-.1-.1-.1-.2-.2-.3-.1.2-.1.3.2.3zm14.3-19.5h-.2v.1c.1 0 .1 0 .2.1v-.2zm28.8 16.1c.1-.2.1-.2-.2-.2.1.1.1.2.2.2zm-27.2-16.7c-.1-.2-.2-.3-.3-.1.1 0 .2 0 .3.1zm-9.2-.6c-.1-.2-.1-.3-.1-.4-.2.2-.1.3.1.4zm11.8 32.2h.3c0-.1-.1-.1-.1-.2-.1-.1-.1 0-.2.2zm-2.6-32.3c0 .1-.1.2-.1.3.2.1.2-.1.2-.2 0 0 0-.1-.1-.1 0-.1 0-.1 0 0zm19.6 14.2-.2-.2c0 .1-.1.2-.1.2.1.1.2.1.3 0 0 .1 0 .1 0 0zm-39.1-12.9c0 .1.1 0 0 0 .1-.1.1-.2 0-.2s-.1-.1-.2-.1c.1.1.1.2.1.2 0 .1.1.1.1.1zm43.2 34.4v.1h.2v-.2s-.1.1-.2.1zm-3.7-12.7v-.2c0-.1-.1-.1-.2-.1v.1c.1.1.1.2 0 .3.1-.1.1-.1.2-.1zm-18.3-14.3s.1-.1.2-.1l-.2-.2c-.1.2-.1.3 0 .3zm-20.4-5.9h-.2v.2h.3s0-.1-.1-.2zm34.5 5.3c0-.1-.1-.2-.2-.3 0 .1-.1.1-.1.2.1.1.2.1.3.1zm-32.7 3.1c-.2 0-.2-.4-.5-.1.1.1.3.1.5.1 0 .1 0 0 0 0zm30.8 14.3-.2.2c.1.1.2.1.3 0 0-.1-.1-.1-.1-.2zm16.5 2.9c-.1-.1-.2-.1-.3 0 .2.2.2.2.3 0zm-44.7-30.4c-.1-.2-.2-.2-.3-.1 0 .2.2.1.3.1zm28.2 10.7c-.1-.1-.1-.2-.2-.4-.1.2 0 .4.2.4zm14.4 8.3.1-.1c-.1-.1-.1-.2-.2-.3v.2c0 .2.1.2.1.2zm-10.6 11.3c0 .4.1.4.2.3l-.1-.1s.1 0 .1-.1c-.1 0-.2 0-.2-.1zm-14.9-2.5c-.1-.1-.1-.2-.1-.2h-.2v.2h.3zm13.5-.3c-.1-.1-.2-.1-.3-.1v.2c.1 0 .2 0 .3-.1 0 .1 0 0 0 0zm-22.8-21.2v-.1c-.1-.1-.2-.1-.3-.2l-.1.1.2.2h.2zm23.5 3.2h-.1c0 .1 0 .2.1.3.1 0 .1 0 .2-.1-.1 0-.1-.1-.2-.2zm-21-13.6c-.1.2-.1.3.1.3.2-.2.1-.3-.1-.3zm-.6 43c.1 0 .2.1.2.1h.1c0-.1-.1-.2-.1-.3-.2.1-.2.1-.2.2zm27.9-5.7c.1 0 .1 0 .4-.3-.1 0-.2 0-.4.3zm8.2-.1v.3l.1.1v.1c.1-.2 0-.4-.1-.5zm-45.9-27.7c-.1-.1-.1-.2-.2-.3h-.1v.2c.1.1.2.1.3.1zm-3.9.9c.1.1.2.1.3.2l.1-.1c-.1-.2-.3-.2-.4-.1zm27.9 17.3v.2h.2v-.2c-.1.1-.2 0-.2 0zm7.6 9.6h.3c-.1-.1-.1-.2-.2-.3 0 .1-.1.2-.1.3zm3.7-5.6h-.2v.2c.1.1.2.2.3.1 0-.1-.4 0-.1-.3zm-4.6-4.5c-.1 0-.2 0-.2.2 0 .1.1.1.1.1.1-.1.1-.2.1-.3zm3.4-7.3-.2-.2-.1.1c.1.1.1.2.2.2.1-.1.2-.1.1-.1zm-33.5-2.2.1.1c.1 0 .2 0 .3.1-.1-.1-.2-.1-.3-.2h-.1zm30.8 8.8c-.1.1-.2.1-.2.1.1.2.1.2.2.2 0-.1 0-.1-.1-.2h.2c-.1 0-.1 0-.1-.1zm-25.4-8.9c-.1.1-.2.1-.3.2.1 0 .2.1.3.1h.1v-.1c0-.2 0-.2-.1-.2zm16.8 3.2c0 .2.1.3.3.3 0-.2-.1-.3-.3-.3zm-3.3 8.7c.1 0 .2.1.2.1v-.3h-.1c.1 0 0 .1-.1.2zm16.6-7.2c-.1-.1-.3-.1-.4-.2 0 0-.1 0 0 .1 0 .1.2.2.4.1zm-11.9-15.9v-.3c.1 0 .1-.1.2-.1-.1-.1-.2-.2-.2-.1-.1 0-.1.1-.2.2h.1c0 .1-.1.2-.1.2s.1 0 .2.1zm7.4 29.9c.3.1.7.3 1 .4-.3-.2-.6-.3-1-.4zm-17.8-31.6c0-.1-.1-.1-.1-.2h-.3v.1c.1.1.3.1.4.1zm-1.7-6.8.3.3h.2c-.2-.1-.3-.3-.5-.3zm-9.7 18s-.1 0 0 0c-.2.3 0 .3.1.4 0-.2 0-.3-.1-.4.1 0 0 0 0 0zm-3.8-11.7.1-.1c0-.1-.1-.1-.2-.1s-.1.1-.2.1v.1h.3zm29.1 8.8c-.1-.1-.3-.1-.4-.2 0 .4.1.4.4.2zm-6.2 17.5v.1c.1 0 .1.1.3.1v-.2h-.3zm-7.5-1.9h-.1v.1c.1.1.2.1.2.2.1-.1 0-.2-.1-.3zm19.6 5.8h.4v-.1c-.1-.1-.2-.1-.3-.2 0 .1 0 .2-.1.3zm-2.2-9.7h-.2v.1c.1.1.1.1.2.1l.1-.1c0 .1 0 0-.1-.1zm9.2 11.1c0-.3 0-.4-.2-.3 0 .1.1.1.1.2-.1.1-.1.1.1.1zm-36.7-10.3c.1.1.3.2.4.3l.1-.1-.3-.3c-.1 0-.1 0-.2.1zm-5.2-6.5c-.1.1-.1.2-.1.4l.3-.3c0-.2-.1-.2-.2-.1zm-3.6-24.9s.1 0 0 0c.1-.1.1-.2 0-.2s-.2 0-.3-.1v.1c.1.2.2.2.3.2zm49.7 42.9c.1-.2-.1-.3-.1-.5-.2.2 0 .3.1.5zm-46.4-21.2-.2-.2c-.1 0-.2.1-.3.2 0 0 0 .1.1.1.1-.1.2-.1.2-.2 0 .1.1.1.2.1zm26.6-10.7c-.1-.1-.2-.2-.2-.3-.1.2-.1.3 0 .4 0 0 .1 0 .2-.1zm6.7 17.9h.4c-.1-.2-.2-.2-.4-.2v.2zm-27.5-15.3c.1.3.2.3.5.3v-.1c-.2 0-.3-.1-.5-.2zm-8.3-3.4c-.1 0-.2-.1-.3-.1 0 .1 0 .1.1.2-.1 0-.1 0-.1-.1 0 .3.1.3.3 0zm9.5 3.8c0-.1 0-.1 0 0l-.1-.1v-.2h-.2c-.1.1 0 .1.1.2 0 .2.1.1.2.1zm-9.4-12.8-.2-.2c-.1 0-.2.1-.3.1.2.3.3.2.5.1zm9.2 25c.1 0 .2 0 .3.1l.1-.1c-.1-.1-.1-.2-.2-.2-.2.1-.2.1-.2.2zm36.3 1.8c-.1-.1-.1-.2-.2-.2s-.2.1-.3.1c0 .1.3.1.5.1zm-10.4 6.1.1.1h.2c-.1-.1 0-.3-.2-.3 0 0 0 .1-.1.2zm-8.3-24.1v-.1c0-.1-.1-.1-.2 0-.1 0-.1 0-.2.1l.1.1c.2 0 .3-.1.3-.1zm18.7 38.1c-.1 0-.1-.1-.1-.1-.1.1-.1.2-.2.3.1.1.2.2.3.1-.1-.1 0-.2 0-.3zm-13-9.5-.1.1c.1.2.2.1.4.1-.1-.2-.2-.2-.3-.2zm1.7-3.3-.1-.1h-.1c0 .1-.1.2-.1.3.1 0 .2.1.3.1v-.3zm4.2 2.4h-.1v.1c.1.1.2.1.4.2v-.2s-.1 0-.1-.1c-.1.1-.2 0-.2 0zm-22.7-3.8c-.1 0-.2 0-.4.1-.1 0-.1.1-.2.2h.3s0-.1.1-.1l.2-.2c0 .1 0 0 0 0zm28.7 23.1h.3c.1 0 .2-.2.3-.2l-.1-.1c-.1 0-.3.1-.5.3zm-2.9-23.5c0 .1 0 .2.1.2s.2-.1.3-.1c-.2-.2-.2-.2-.4-.1zm-6.4 2.6c.2.2.2.2.4.1-.2-.2-.2-.2-.4-.1zm-33.3-27.7c.1-.1.1-.2 0-.2h-.3v.2h.3zm35.8 13c0-.1-.1-.2-.1-.2-.2-.1-.1.2-.2.2.1 0 .2.2.3 0zm-9.2 13.9c-.1.2.1.3.2.3 0 0 .1 0 .1-.1v-.1c-.1 0-.2 0-.3-.1zm11.1 22.1c0 .1-.1.1-.1.2v.1c0 .1.1.1.1.2h.1v-.3c-.1 0-.1-.1-.1-.2zm1.4-29.5c-.1-.2-.2.1-.4 0v.1c.1.1.2.1.3.2.1-.1.1-.2.1-.3zm-23-12.7c-.1 0-.2.1-.2.2s.1.1.2.2c.1-.2.1-.3.1-.4 0 0 0-.1-.1 0zm11.6 24c0-.1.1-.2.1-.3-.1 0-.1-.1-.2-.1-.1.3-.1.3.1.4zm-24.1-18.8h-.2v.3c0 .1.2.1.2.1.2-.2 0-.3 0-.4zm4.5-7.2s.1-.1.1-.2l-.1-.1h-.2l.1.1-.1.1c0 .2.1.1.2.1zm36 22.3s0-.1 0 0c-.1 0-.2 0-.3.1v.2c.1 0 .2 0 .3-.1.1-.1 0-.2 0-.2zm-10.5 2.7-.4-.4c0 .1-.1.2-.1.3.2.1.4.2.5.1zm-24.2-23.9c.1 0 .1 0 0 0 .2-.2.1-.2 0-.3 0 .1-.1.1-.1.2 0 0-.1 0-.1-.1 0 .1-.1.1 0 .1 0 .1.1.1.1.2l.1-.1zm21.8 22c-.1-.3-.3-.4-.6-.4.3.1.3.4.6.4zm-6-1.9s.1 0 .2.1v-.3h-.3c.1 0 .1.1.1.2zm9.3-.7c0 .1 0 .1 0 0 .1.1.1.2.2.3 0-.1.2-.2.1-.2 0-.3-.2 0-.3-.1zm-16.9 16.8c-.1.2 0 .3.2.4h.2c0-.1 0-.1-.1-.2-.1-.2-.2-.2-.3-.2zm25.7-8.2c0 .3.1.3.3.4 0-.3-.1-.5-.3-.4zm-.5 10.5c-.1.1-.2.3 0 .4 0 0 .2 0 .2-.1.1-.1 0-.2-.2-.3zm-7.8-19.6c.1 0 .3.1.4.1-.1-.3-.1-.4-.3-.4v.2c0 .1-.1.1-.1.1zm-3.2 5.1c.2.4.3.4.4.2-.1-.2-.1-.4-.4-.2zm-22.2-24.9s0-.1-.1-.1h-.1v.2c-.1 0-.1-.1-.2-.1v.4h.1c.2-.2.2-.3.3-.4zm29.1 29.5c-.1 0-.1-.1-.2-.1-.1.2-.2.3-.3.5 0 0 0 .1.1.1 0 0 .1 0 .1-.1.1-.2.2-.3.3-.4zm-3.5-5.4c.1.1.2.2.3.2v.1c.1 0 .2-.1.3-.1-.1-.1-.4-.2-.6-.2zm-14.7 1.1s0 .1.1.1h-.1c.2.1.3.1.5.2 0-.2-.3-.4-.5-.3zm14.2 10.1c.1.1.2.2.2.4h.1c0-.1.1-.3.1-.4v-.1c-.2 0-.3.1-.4.1zm-22.7-33.9c0 .1.4.2.5.2l-.4-.4c-.1.1-.1.2-.1.2zm38.6 23.8h-.2v.1c.1.1.2.3.2.4h.1c-.1-.3.1-.4-.1-.5zm-19-1.4c0-.1.1-.1.1-.2s-.1-.2-.1-.2h-.1v.2c-.1-.1-.1-.2-.1-.2h-.1c.1.1.1.2.2.3 0 .1.1.1.1.1zm12.6-9.1v-.2l-.1-.1s-.1 0-.1-.1l-.1.1c0 .1.1.2.1.2 0 .1.1.1.2.1zm-32.8-16.6c.1.1.1.1.2.1 0 0 .1 0 .1.1.1.1.2.1.3-.1-.2-.1-.4-.2-.6-.1zm24.2 5.8s0-.2-.1-.2-.2-.1-.3-.1v.2c.2.1.3.2.4.1zm7.1 35.1c0 .2.3.3.5.2-.2-.2-.3-.3-.5-.2zm-10.8-19.1c-.1 0-.2-.1-.3-.1 0 .2 0 .3-.1.5h.2c.1-.2.1-.3.2-.4zm-21.8-6 .2.2c.1-.1.2-.1.2-.2v-.1c-.1 0-.2-.1-.3-.1 0 .1 0 .2-.1.2zm28.6 18.3c-.1.1-.2-.1-.2-.1h-.2v.2c.1.2.3.2.4 0 .1 0 .1-.1 0-.1zm-32-32 .2.2c.2 0 .3-.1.4-.3-.3-.2-.4.1-.6.1zm6-9s0-.1 0 0c0-.2-.1-.3-.2-.4h-.4c.1.1.1.1.1.2.1 0 .2-.1.3-.1.1.2.1.2.2.3zm-3.1 43.3c.1.1.2.1.4.2v-.1c.1-.1.1-.1.1-.2-.2-.1-.3-.1-.5.1zm-8.1-36.6v.2c.1 0 .2.1.2.1h.3c0-.1-.3-.3-.5-.3zm-2.4 1.4h.1c.1.1.1 0 .2-.1 0-.1-.2-.3-.4-.3 0 .1.1.2.1.3l-.1.1h.1zm16.7 36.9h-.3c0 .1.1.1.1.1 0 .2.1.2.2.2l.1-.1s0-.2-.1-.2zm9.3-33.1c-.1-.2 0-.5-.2-.6-.2.3-.1.3.1.4v.2c.1.1.1.1.1 0zm15.3 16.1c-.2-.2-.2-.7-.7-.6.2.2.5.6.7.6zm7 7.6c-.1.1-.1.2-.1.3.2 0 .3.1.5.1-.1-.2-.2-.3-.2-.5 0 .1-.2.1-.2.1zm-6.8 4.4h-.2v.4s0 .1.1.1h.1c.1-.1.1-.2.1-.2.1-.2 0-.3-.1-.3zm2.3 6.9v.2c0 .2.1.2.2.2h.1c0-.2-.1-.3-.1-.5-.1.1-.1.1-.2.1zm-4.4-34.5c.1.1.3.1.4.1 0-.1.1-.1.1-.2-.1-.1-.2-.1-.3-.2-.1-.1-.2-.1-.2 0s-.1.2 0 .3zm-5.1 23.6-.2-.2c-.1.1 0 .2.2.4.1.1.4.1.5 0-.2-.1-.3-.3-.5-.2zm-24.5-26s-.1 0-.2.1c0 0 0 .1.1.1.1.1.1.1.2.1h.2c0-.1.1-.2 0-.2s-.2-.1-.3-.1zm6.7 15.2c.1.3.3.3.5.4 0 0 .1 0 .1-.1s-.1-.3-.1-.4c-.2-.1-.4 0-.5.1zm-5.1-15.8c-.1-.1-.2-.1-.4-.1v-.1h-.1c0 .1-.1.1-.1.2 0 .3.2.4.4.5 0-.3.1-.4.2-.5zm8.5-1.7c-.2-.1-.3.1-.5.1.1.2.2.3.5.2.1 0 .1-.1.1-.2l-.1-.1zm17.9 17c-.1.1-.1.3-.2.4.2 0 .3.1.4.1l.1-.1c0-.2-.1-.3-.3-.4zm-.1-6.6c-.2-.3-.5-.3-.7-.4h-.1v.1c0 .2.6.4.8.3zM235 257.5h-.2c.1.2.1.3.2.5h.2l.2-.2.1.1c-.2-.4-.2-.4-.5-.4zm2.1-24.9c-.1 0-.1 0 0 0-.1.1-.1.2-.1.3 0 .1.1.1.2.1 0 0 .1.1.1.2v-.1c.1 0 .1.1.1.1 0 .2 0 .2.2.1-.1-.1-.2-.3-.3-.4 0-.2-.1-.2-.2-.3zm-11.1-8.4c.1 0 .2-.1.2-.2l.1-.1c-.1 0-.2-.1-.3-.1h-.3c-.1 0-.1.1-.1.2.1.1.2.2.4.2zm12.8 13.2c-.2.1-.1.2-.1.4.3.1.5 0 .6-.2-.1-.3-.3-.3-.5-.2zm-12.8-6.2c.1-.1.1-.1.2-.1 0-.1-.1-.2-.1-.3 0-.1-.1-.2-.2-.3-.2 0-.3.3-.2.4 0 .1.2.2.3.3zm-10-3.3c-.1.1 0 .1 0 0 0 .1.1.1.1.2-.1.1-.1.2-.1.2.1.1.2.2.3.4h.1v-.2c.2 0 .3-.1.2-.2-.3-.2-.4-.3-.6-.4zm39.5 45.5c-.1 0-.2-.1-.2.1 0 0 0 .1-.1.1s-.1-.1-.1-.1c0 .2.2.4.4.3.1-.1.3-.1.4-.2-.1-.1-.2-.1-.3-.2 0 .1 0 0-.1 0zm3.8-21.4c.1 0 .1.1.2.1 0-.1.1-.1.1-.2s-.1-.2-.1-.3c-.1-.1-.2-.2-.4-.1.1.2 0 .3-.1.5H259.3zm1.6.6v-.2c0-.1-.1-.2-.2-.3h-.2c-.1 0-.2 0-.3.1.1.1.2.2.2.3.1.1.1.2.2.2s.2 0 .3.1v-.2zm-8.8-4.8c0-.3-.2-.4-.5-.3v.1h-.1c-.1.1-.1.2-.2.2.1 0 .2.1.3.1v.2h.2v-.2h.2c.1 0 .1-.1.1-.1zm.1 4c-.1-.2-.2-.2-.3-.1.1.2.1.3.1.4 0 .1 0 .2.1.2.2 0 .4.1.7-.1-.1-.1-.2-.2-.4-.3 0 0-.2 0-.2-.1zm8.2 3.6c.1-.1.1-.2 0-.3l-.2-.2c-.1 0-.2-.1-.3-.1-.1 0-.1.2-.1.2-.1.2.1.3.2.3.2.2.3.2.4.1zm-4.7-.6v.2l-.1.1c-.2-.1-.3.1-.5.1.2.1.3.1.5-.1.1.2.2.4.4.3.1 0 .2-.1.2-.2s0-.3-.1-.4c-.1.1-.2.1-.4 0zm-7.3.3c.2.2.3.3.5.1.1 0 .1-.1.1-.2v-.2c-.1 0-.1 0-.2.1-.1-.2-.3-.4-.5-.6h-.1c0 .1.1.1.1.2v.3c-.1.1-.1.1 0 .2.2 0 .2.1.1.1.1 0 0 0 0 0zm4.8-7.4c-.1-.3-.2-.3-.4-.3v-.1h-.1s-.1-.1-.1-.2c.1 0 .1-.1.2-.1-.1 0-.1-.1-.2-.1h-.2c-.1 0-.1 0-.1.1v.1c.1.1.2.1.4.2v.1h.2c0 .1-.1.1-.6.1.2.1.1.2.1.3v.2c.1.2.3.2.5.2.1-.2.1-.4.2-.6-.1.1 0 .1.1.1zm-36.9-18.4c0 .1.1.2.1.3-.1 0-.1.1-.2.1l.2.2s.1.1.2.1c0-.1.1-.1.1-.2 0 0 0-.1.1-.1.2.1.3.2.5.2h.1s.1 0 .1-.1v-.2h.2v-.1c-.3-.1-.6-.2-.8-.2 0 0 0-.1.1-.1-.4 0-.6.1-.7.1zm45.1 45.6c-.1-.1-.5-.1-.6 0-.1.1-.2.1-.3.2-.1.1-.2.4-.1.4.1.1.2.1.3 0 .3-.1.6-.4 1-.3-.2-.2.1-.3.2-.4 0-.1-.1-.1-.1-.2-.1.1-.4 0-.4.3zm-45.7-41.7c0-.1 0-.2-.1-.2-.1-.2-.2-.3-.3-.5-.1-.3-.2-.3-.5-.2-.1-.2 0-.2.2-.3-.1-.1-.2-.2-.3-.2-.1 0-.3 0-.3.1-.1.1.1.2.2.2h.1c0 .1-.1.1-.1.1l-.1.1c0 .1.1.1.1.2 0 0 0 .1.1.1h-.2c0 .2 0 .3-.2.3 0 0-.1 0-.1.1s0 .3-.1.4c.1 0 .1 0 .2.1.2.1.3.2.5.3h.2v-.3c0-.1-.1-.1-.1-.2.3-.1.5-.4.8-.1zm21.6-13.1v-.1h-.2v.1h.2zm-15.8 16.1c.1 0 .1.1.2.1v-.1c0-.1-.1-.1-.2 0 0-.1 0-.1 0 0zm24.5 12.5h.3c-.1-.1-.1-.2-.2-.2 0 .1 0 .1-.1.2zm9.3-18.2h.4c-.2-.2-.3-.2-.4 0zm-18-21.4.1.1.1-.1-.1-.1c0 .1 0 .1-.1.1zm-20 28c-.1 0-.1 0-.2.1v.1h.3v-.1c0-.1-.1-.1-.1-.1zm39.1-14.4c.1 0 .1 0 0 0 .1-.1.1-.1.1-.2 0 0-.1 0-.2-.1.1.1.1.2.1.3zm-35.5-6.4s0 .1.1.1l.2-.2s0-.1-.1-.1c0 .1-.1.2-.2.2zm29.6 13.6c-.1 0-.1-.1-.2-.1 0 0-.1 0-.1-.1v.1c.1.2.2.2.3.1zm-36.9-9.6c-.1 0-.1-.1-.2-.1 0 0-.1.1-.2.1h.4zm25.3 14.4c-.2 0-.2.1-.2.2h.1s0-.1.1-.2zm-24.2-9.6c.1 0 .3 0 .4-.1-.4-.1-.4-.1-.4.1zm.6 17.7c.1-.1.2-.1.3-.2-.3-.1-.3-.1-.3.2zm8.1-33.9s.1 0 0 0l.1-.1c-.1 0-.1-.1-.2-.1l-.1.1c.1.1.2.1.2.1zm1.2 1.5c.1 0 .2-.1.2-.2h-.2v.2zm-8.3 26.8v.1c.1 0 .1.1.2.1v-.1s-.1-.1-.2-.1zm-6.5-12.6c-.1 0-.2.1-.3.1v.1c.2 0 .3-.1.3-.2.1.1 0 0 0 0zm59.7 3.7c0 .1-.1.1-.1.2.1 0 .2 0 .3.1-.1-.1-.1-.2-.2-.3zm-45.6 5.1c.1-.1.2-.2.3-.2h-.3v.2zm7 6.2c.1 0 .1.1.2.1v-.1c-.1 0-.1-.1-.2-.1.1 0 0 .1 0 .1zm17.4-19.3c-.1 0-.1-.1-.2-.1 0 .1.1.1.1.2.1 0 .1-.1.1-.1zm15.8-6.1.1-.1c.1.1.2.1.3.1 0-.1-.1-.2-.1-.3-.1 0-.2 0-.3.1h-.1c0 .1.1.1.1.2zM221.8 250c.1.1.1.1.2.1h.2v-.1h-.4zm9.5-11.2c.1 0 .1 0 .2.1v-.2h-.2v.1zm-23.4-22.9s0-.1 0 0c-.1-.1-.2-.1-.3 0v.1c.1 0 .2-.1.3-.1zm25.6 3.1c.1 0 .1-.1.2-.1 0 0 0-.1-.1-.1 0 0-.1 0-.1.2-.1-.1 0-.1 0 0zm15.2 5.8c.1.1.1.1.1.2l.2-.2v-.1c-.1.1-.2.1-.3.1zm-33.5 1.2c0-.1 0-.1 0 0-.1-.1-.3 0-.4 0 .1.2.2-.1.4 0zm2.6 17.8c.1.1.1.2.2.3 0-.2 0-.3-.2-.3zm35.4-20.6c-.1 0-.1 0 0 0 0 .1 0 .2.1.2h.2c-.2-.1-.3-.2-.3-.2zM199 220c-.1 0-.1 0 0 0 .1.1.2.1.3.1v-.1c-.1-.1-.2 0-.3 0zm22.6 11.5c0 .1.1.1.1.2.1.1.2.1.1-.1 0 0-.1-.1-.2-.1zm-3.5-11.7c-.1 0-.2-.1-.2-.1v.1c0 .1.1.1.2 0-.1.1 0 0 0 0zm-12.9 7.4c0-.1-.1-.2-.3-.1.2.1.2.1.3.1 0 0 .1 0 0 0zm12 17.2h-.3c.2.2.2.2.3 0zm34.6-17.1c-.1 0-.1-.1 0 0-.1-.1-.1 0-.1 0 0 .1 0 .1-.1.2.1 0 .2-.1.2-.1v-.1zm-36.6-1.9h-.2s0 .1-.1.2c.2 0 .2-.1.3-.2 0 .1 0 .1 0 0zm38.9 3.1c.1 0 .1.1.2.1 0-.1 0-.1.1-.2-.1 0-.2 0-.3.1 0-.1 0 0 0 0zm-3.6-.7c.1 0 .1.1.2.1 0 0 .1 0 .1-.1l-.1-.1s-.1 0-.2.1zm-30.2-4.6h.4v-.1c-.1 0-.3 0-.4.1zm-4.2 6.2c.1 0 .2.1.2.1v-.1c-.1 0-.1-.1-.2-.1v.1zm-2.5 9.5c-.1 0-.1.1-.2.2.1 0 .2-.1.3-.1l-.1-.1zm33.5-14.4c.2.1.3.1.5.1-.2-.1-.3-.2-.5-.1 0-.1 0-.1 0 0zm-23.7 22.7v.2c.1 0 .2-.1.2-.1v-.1h-.2zm-15.7-22.5c-.1.1-.1.2-.2.4.1 0 .2-.1.2-.1v-.3zm2.1 10.7c.1.1.1.1.2.1l.1-.1-.1-.1c0 .1-.1.1-.2.1zm50.9-8.2h-.3v.1h.2c.1 0 .1 0 .1-.1zm-15.5-11 .1-.1s0-.1-.1-.1h-.2v.1c.1-.1.3-.1.2.1zm-29.6-.3c.1 0 .1 0 .2-.1v-.1l-.1-.1c-.1 0-.1.1-.1.1-.1.1-.1.2 0 .2zm1.2 3.2-.1-.1-.1.1s0 .1.1.2c0-.1 0-.1.1-.2zm-4.3 5.3c.1 0 .3 0 .4.1-.1-.2-.2-.2-.4-.1zm8 22.5c0 .1 0 .2-.1.3h.2v-.3h-.1zm23.8-25s.1.1 0 0c.2.1.2 0 .3 0 0 0 0-.1-.1-.1 0 0-.1.1-.2.1zm-9.7-4.7c-.1-.1-.2-.1-.3-.1.1.3.1.3.3.1zm16 8.2c.1 0 .2-.1.2-.1v-.1c-.1 0-.2-.1-.3-.1.1.1.1.2.1.3zm4.4-1.2s.1.1.2.1c0 0 0-.1.1-.1l-.2-.2c-.1 0-.1.1-.1.2zm-16.8-9.7c-.1 0-.1 0 0 0-.1.1-.1.2-.1.3.3-.1.1-.2.1-.3zm7.3 25.6s0-.1 0 0c-.1-.1-.2-.1-.3 0v.1c.1 0 .2 0 .3-.1 0 .1 0 0 0 0zm-29.8-15.9c-.1 0-.2-.1-.2-.1v.1c0 .1 0 .1.1.2 0-.1 0-.1.1-.2zM241 230h-.3v.1h.3v-.1zm24.3-8 .2.2.1-.1c-.1-.1-.2-.1-.3-.1.1 0 0 0 0 0zm-.4 1.7c-.1-.2-.2-.2-.3 0 .1.1.2.1.3 0 0 .1 0 .1 0 0zm-55.9 2.7c-.1 0-.1.1-.1.1s.1.1.1.2h.1c-.1-.1-.1-.1-.1-.3 0 .1 0 0 0 0zm42.7-2.7c.3.1.2-.1.3-.1v-.1c-.1.1-.2.1-.3.2zm8.6 5.6h-.2v.1h.3l-.1-.1zm-56.5 3.7h.3v-.1c-.1 0-.1-.1-.2-.1 0 0 0 .1-.1.2zm16.1 12.7c0 .1.1.1 0 0 .1.1.2.1.3.1-.1-.1-.1-.1-.2-.1 0-.1 0 0-.1 0zm23.9-25.3s.1 0 0 0c0-.2 0-.4-.2-.4 0 .1 0 .2.1.2l.1-.1c-.1.2 0 .3 0 .3zm-31.2 2.6c.1-.1.3.2.4-.1-.2 0-.3.1-.4.1zm-1.5 1.1c0-.1.1-.2.1-.3-.1 0-.1 0-.2.1 0 .1 0 .1.1.2zm4.5-1.8h-.2v.2c.1 0 .3 0 .4-.1-.1 0-.1-.1-.2-.1zm.4 13h-.2c-.1 0-.1 0-.1-.1 0 .1 0 .1-.1.2.2 0 .3 0 .4-.1 0 .1 0 0 0 0zm26.3-19.5-.1.1c0 .1.1.2.3.1l-.2-.2zm-8.4-5.3h-.3v.1h.3v-.1zm-4 22.3h.4c-.2-.2-.2-.2-.4 0zm16.1.6c.1 0 .1-.1.2-.1 0 0 0-.1-.1-.1h-.3l.2.2zm-1.3-5.7c.2.1.2.1.4-.1-.1 0-.2.1-.4.1zm-41.4-7c0 .1-.1.2-.1.2l.1.1c.1 0 .2-.1.2-.1 0-.1-.1-.2-.2-.2zm17.5 26.5h.3c0-.1-.1-.1-.1-.2-.1 0-.1.1-.2.2zm32.5-17.8c-.1 0-.2 0-.2.2.1 0 .2-.1.3-.1-.1 0-.1-.1-.1-.1zm-36.8 13.4s.1.1 0 0c.2 0 .3 0 .3-.1-.1 0-.1-.1-.2-.1 0 .1 0 .2-.1.2zm-9.2-11c-.1 0-.2-.1-.2-.1v.2h.3l-.1-.1zm-.7-1h-.2v.2c.2 0 .2 0 .2-.2zm47.8-12.6h-.3c.1.2.2.2.3 0zM209 233.5l.1.1h.3v-.1c-.1-.1-.2-.1-.4 0 .1-.1.1-.1 0 0zm16.7-23.8c-.1 0-.1-.1-.2-.1s-.1.1-.1.2l.1.1.2-.2zm-11.2 16c-.1 0-.3 0-.4.1.2.2.3.1.4-.1zm-4.9-4.3h-.2c0 .1.1.1.1.1 0 .1 0 0 .1-.1zm13.4 23.8c-.1 0-.2-.1-.4-.1.1.3.1.3.4.1zm-3.7-25c-.1 0-.1-.1-.1 0-.1 0-.1.1-.2.1l.1.1c.1-.1.2-.1.2-.2zm33.1-9.5c-.1-.2-.1-.2-.3-.1.1.1.2.2.3.1zm-32.5 7.8c-.2-.1-.3-.1-.3.2.1-.1.2-.2.3-.2zm-7.2 6.4c-.2-.1-.3-.1-.4-.2 0 .2.2.3.4.2zm32.5 14.7c-.1 0-.1.1 0 .3.1-.1.2-.1.2-.2-.1 0-.1-.1-.2-.1zM219.6 218s-.1-.1-.2-.1c.1.1.1.2.2.3.2 0 0-.1 0-.2zm24.8-4c-.1-.1-.2-.1-.3-.1 0 .1.1.2.1.2.1 0 .2 0 .2-.1zm-38.5 19.3c-.1 0-.1.1-.3.1.1 0 .2.1.3.1h.1v-.1c0-.1-.1-.1-.1-.1zm57.4-6.4.2-.2-.1-.1c-.1 0-.1.1-.1.3 0-.1 0-.1 0 0zm-12.3-6.6c.1-.1.1-.1.1-.2s-.1-.1-.1-.1h-.2v.1c.2 0 .2.1.2.2zm-23.9 2.9s0-.1.1-.2h-.3c0 .2.1.2.2.2zm-19.5 10.9.1.1c.1-.1.2-.1.2-.2-.1 0-.1-.1-.2-.1-.1.1-.1.1-.1.2zm29.5-21.8s0-.1 0 0c-.1-.1-.2 0-.4 0 0 .1.1.1.1.2.1-.1.2-.2.3-.2zm-22.4 26.8c.2-.1.3-.1.5-.2v-.1c-.1.2-.4 0-.5.3zm33.8-12.3c.2 0 .2-.1.2-.2h-.2v.2zm14.3-10.4c-.2 0-.2.1-.3.2.3.1.4 0 .3-.2zm-55.4 10.7c-.3-.1-.3-.1-.3.2.2.1.2-.1.3-.2zm28.7-13c-.1 0-.2-.1-.4-.1.1.2.2.3.4.1zm16.6-4.5h.2v-.1h-.4v.1c.1-.1.1 0 .2 0zm1.1 16.3h-.2v-.2c-.1 0-.2.1-.3.1.4.3.4.3.5.1zm-6.8-3.2c.1-.1.2-.1.2-.2v-.1h-.2s0-.1-.1-.1h-.1c.1.2.2.3.2.4zm-6.5 12.3c-.1 0-.2-.1-.3-.1 0 0-.1.1-.1.2.1 0 .1.1.2.1l.2-.2zm9.5-10.1c0 .1.1.1.2.2.1-.1.1-.2.2-.3l-.1-.1c-.1.1-.2.2-.3.2zm-32.4 1.1c-.1 0-.2 0-.3.1v.1h.4l.1-.1c-.1-.1-.1-.1-.2-.1zm20.2-15c-.1 0-.2-.1-.3-.1 0 0 0 .1-.1.1.1.1.2.1.2.2.1-.1.2-.1.2-.2zm-25.8 5.4c.1.3.1.3.3.2 0-.2-.2-.2-.3-.2zm31.2 32.3c.1 0 .2-.1.3-.1v-.1c-.1 0-.2-.1-.4-.2 0 .3.1.3.1.4zm16.5-25.4c-.1 0-.1.1 0 .5.1-.1.1-.1 0-.5zm6.4-5.4c-.1-.2-.3-.3-.4-.3.1.1.1.2.2.2 0 .1 0 0 .2.1-.1 0-.1 0 0 0zm-55.2 13.2c0 .1 0 .1 0 0 0 .1.1.2.1.2s.1 0 .2-.1v-.1c0 .1-.1.1-.3 0zm-1.8 3.7c.1 0 .2-.1.3-.1 0-.1 0-.1-.1-.1-.1-.1-.2 0-.2.2zm33.5-8.1c-.1.1-.1.1-.2.1l.1.1c.1 0 .1-.1.2-.1 0 .1 0 0-.1-.1zm12.7 1.4c-.1-.1-.2-.1-.4-.1.1.1.1.2.2.3.1 0 .2-.1.2-.2zm-1.6-6.6-.1.1c0 .1.1.1.1.2.1 0 .2 0 .3-.1-.1-.2-.3.2-.3-.2zm-6.7.3h.2c0-.1-.1-.2-.1-.3h-.1c0 .1-.1.2 0 .3zm-2.8-8.3h-.3v.1h.3v-.1zm-26.3 23.2-.1.1h.2c.1-.1.2-.1.3-.2-.2 0-.3.1-.4.1zm29.3-15.9c-.1 0-.1 0-.2-.1.1 0 .1-.1.2-.1-.1 0-.2-.1-.2-.1 0 .1-.1.2-.1.3.3.1.3.1.3 0zM221.6 233c.1 0 .2-.1.3-.1l.1-.1-.1-.1h-.1c-.1.1-.1.2-.2.3zm14.9-10.4c.2.2.3.2.4 0-.1-.2-.3-.1-.4 0zm10.7-8.5v.1h.2v-.1c-.1-.1-.1-.1-.2 0 .1-.1.2-.1.2-.2-.2 0-.3.1-.4.1v.1h.2zm-20.7-3.3c0 .1.1.2.1.2.1 0 .2-.1.3-.1-.2 0-.3-.1-.4-.1zm28.9 16.3c-.4.1-.7.2-1 .4v.1c.4-.2.7-.3 1-.5zm-37.5-9.7c-.1 0-.2-.1-.2 0-.1 0-.1.1-.2.2l.1.1.3-.3zm-5.7-3.9h-.6v.1h.4c.1 0 .2 0 .2-.1zm5.9 20.8c-.1-.1-.2-.1-.2-.2h-.1v.1c0 .3.2.2.3.1zm-11.7-6v-.1h-.2s0 .1-.1.2h.1s.1 0 .2-.1zm27.9-15c-.2.1-.3.1-.4.2.3.1.3.1.4-.2zm1.4 21.6-.1.1.1.1h.3c0-.2-.2-.2-.3-.2zm19.1-10.5c-.1-.1-.1-.1 0 0-.2-.1-.3 0-.4 0 0 .1.1.2.1.3.1-.2.2-.3.3-.3zm-8.8-5.2c-.1 0-.1-.1-.2-.1 0 0-.1.1-.1.2l.1.1.2-.2c0 .1 0 .1 0 0zm14.2 1.2c.1 0 .1 0 .2.1.1.2.1.2.2 0-.2-.2-.2-.2-.4-.1zM226.4 240c-.2-.1-.3-.1-.5-.1v.2c.2 0 .4-.1.5-.1zm-8.9-.5v-.5c-.1-.1-.2 0-.2.1 0 .2.1.3.2.4zm-21.3-16.2c-.1.1-.2.1-.3.2v.1c.1.1.3 0 .3-.1v-.1c.1-.1.1-.1 0-.1zm68.5-5c-.1-.3-.3-.2-.5-.3 0 .4.3.2.5.3zm-50.2 18.8h.2v-.1c-.1 0-.2 0-.2.1-.2 0-.1.2-.2.3h.1c.1 0 .1-.2.1-.3zm12-27.7c-.2 0-.3 0-.4-.1.1.2.1.3.3.3.1 0 .1-.1.1-.2zm17.9 8.1c.1.1.2.1.2.2l.3-.3c-.2-.2-.3 0-.5.1zm-30.7 9.1c-.2 0-.4.1-.6.2.2.1.4.1.6-.2zm-9.4 4.1c-.1 0-.1 0-.1.1.2.1.3 0 .3-.3-.1 0-.2.1-.4.1.1 0 .1 0 .2.1zm9.9-4.6h-.2c-.1-.1-.1-.1-.2-.1s-.1.1-.1.1c0 .1.1.1.2.1h.1c.1.1.2 0 .2-.1zm-16.7-2.1c.3.1.3-.1.4-.3h-.3c-.1.1-.1.2-.1.3zm25.5 11.1c.1.1.1.2.1.3.1-.1.2-.1.2-.2v-.1h-.3zm27.8-25.1c.1.1.3-.1.4-.3h-.3c0 .1-.1.2-.1.3zm-2.7 11.9h.2l.1-.1c-.1 0-.2-.2-.4-.1 0 0 0 .1.1.2zm-23.9-11.7s0-.1-.1-.1c-.1-.1-.1 0-.2.1 0 .1-.1.1-.1.2h.2c.1 0 .1-.1.2-.2zm41.9 14.4h-.2c0 .1 0 .2.1.3.2 0 .3 0 .3-.2-.2.1-.2 0-.2-.1zm-16.3 2.5c-.2-.1-.3 0-.4.1v.2c.2 0 .3-.1.4-.3zm-1.7-3.6s0 .1 0 0c0 .2 0 .2.1.4.1 0 .2-.1.3-.1l-.2-.2c-.1-.1-.1-.1-.2-.1zm5.4-1.3c-.1-.1-.1-.1-.1-.2h-.1c0 .1-.1.1-.1.1l-.1.1v.1c.1 0 .2 0 .4-.1zm-20.2 14.3v.3l.2-.2v-.1c0-.1 0-.1.1-.2h-.1l-.2.2zm38.7-5.2c-.1.2-.2.4-.2.6.1-.1.2-.2.2-.3v-.3zm-19.7-14.6c.1.1.1.2.3.1.1 0 .1-.2.1-.3-.3.1-.3.1-.4.2zm-2.8 6.8c.3 0 .3 0 .4-.3-.3 0-.4 0-.4.3zm-45.2 4c-.1 0-.1.1-.2.2.1.1.2.1.2.1.1 0 .2-.1.2-.1 0-.1-.1-.2-.2-.2zm36.2-16.8c0-.1-.2-.1-.3-.1-.2.1.1.2 0 .3.2 0 .4 0 .3-.2zm3.8 17c-.1 0-.2.1-.3.1.1.3.2.1.4.1 0 0 .1-.1.1-.2-.1.1-.2 0-.2 0zm3.7-14.4c-.1-.1-.1-.2-.2-.3-.3-.1-.1.3-.2.3v.1c.1 0 .3 0 .4-.1zm-26.2 7.8c-.1-.2-.1-.3-.2-.4 0-.1-.1-.1-.2 0 0 .1 0 .2.1.3 0 .1.1 0 .3.1zm25.7 8.5c-.1 0-.2 0-.3.1.2.3.2.3.4.2 0-.1 0-.2-.1-.3zm-31.4 4.6c.1 0 .2-.1.2-.1 0-.2-.2-.2-.3-.2 0 0-.1.1-.2.1.1.1.2.2.3.2zm-2.3-8.9c.2.1.2-.1.3-.2 0-.1 0-.1-.1-.2h-.2c-.1 0-.1.1-.2.2h.1c.1.1.1.2.1.2zm43.2-10c.1-.1.1-.2.2-.2 0 0-.1-.1-.1-.2h-.1c0 .1-.1.2-.1.3l.1.1zm-6 9.8c.1-.1.3-.1.3-.3h-.5c.1.1.1.2.2.3zm-35.4-.3c0 .1 0 .1.1.2h-.2c0 .1 0 .1.1.1s.1.1.2.1V224.9c0-.1 0-.2-.2-.1zm32.6.3c-.3-.1-.5-.1-.7.1.2 0 .4.1.7-.1zm-6.1 2.9c.1.1.1.2.2.2s.1-.1.2-.1c-.1-.1-.1-.2-.2-.3l-.2.2zm6.9-7.5c-.3-.1-.1.2-.3.2v.1c.1 0 .2 0 .3-.1v-.2zm-.1 25.3.1-.1c-.1 0-.1-.1-.2-.1s-.2.1-.3.1c.1.1.2.2.4.1zm13.1-25.2c-.2-.2-.4-.2-.6-.1.2.3.4.2.6.1zm7.2 8.4.1-.2c-.1-.2-.2-.1-.3-.1-.1.2-.1.4.2.3zm-20.6-9s.1 0 0 0c.2 0 .3-.1.4-.2-.3-.2-.4-.2-.5-.1l.2.2s0 .1-.1.1zm1.9 5.9c-.2 0-.4-.1-.4.2.4.1.4.1.4-.2zm-35.3-1.2h.1c0-.1 0-.3-.1-.4 0 0-.1 0-.2-.1h-.1c.1 0 .1.1.1.1-.1 0-.1 0-.2.1.3.1.4.2.4.3zm43.3.3v-.6h-.2c0 .2.1.3.1.6 0 0 .1.1.1 0zm-6-1.9c0-.1.1-.2.1-.3-.2-.1-.5 0-.6.2h.4s0 .1.1.1zm-10.6 11.6h.2l-.1.1c.2-.1.3-.1.5-.2-.2-.1-.5-.1-.6.1zm18.3-2.9s.1 0 0 0c0-.2-.1-.3-.2-.4h-.1c-.1.1-.1.2-.2.3.3.1.4.1.5.1zm-42.1-8.3c.1.1.4-.1.5-.2h-.6c0 .1 0 .2.1.2zm46.3-10.7c0-.1 0-.1 0 0-.1-.2-.1-.4-.3-.4-.1 0-.1.1-.2.2v.1c.2 0 .4 0 .5.1zm-15.6 12.4c0 .1 0 .2.1.2-.1 0-.2 0-.3-.1v.1c.1 0 .2.1.4.1h.2c0-.1 0-.2-.1-.2-.1-.1-.2-.1-.3-.1zm2.4-15.8c0 .1 0 .1.1.1s.2.1.3.1c.1 0 .1-.1.2-.2-.1 0-.1-.1-.2-.1h-.2c-.1 0-.1 0-.2.1zm-35.6 12c.2 0 .2-.1.2-.2-.3 0-.4.1-.5.3.1 0 .2 0 .2-.1 0 .1 0 0 .1 0zm21.7-13.6c0-.1-.1-.1-.2-.1s-.2.1-.3.2c0 .1.1.1.1.1.3 0 .5-.1.4-.2zm31.7 20.5c-.3 0-.4 0-.5.2.2.2.4.1.5-.2zm-22.9-5.8c.1.1.2.3.3.4.1 0 .1-.1.2-.1-.1-.1-.1-.3-.2-.4-.1 0-.2.1-.3.1zm-20.2 11.6h.4v-.3l-.1-.1c-.1.1-.2.1-.2.2-.1.1-.1.2-.1.2zm34.3-7.4c.1 0 .1.1.2.1.2 0 .3-.1.3-.3l-.1-.1c0 .2-.2.1-.2.1-.2 0-.2.1-.2.2zm-46.9-.1h.3c.2-.1.1-.3.1-.5-.4-.1-.2.3-.4.5zm-2.2-11.3h-.4c-.1 0-.2.2-.3.3h.3c.1-.1.1-.2.2-.3 0 .1.1.1.2 0 0 .1 0 .1 0 0zm30 34c-.3.1-.4.2-.3.5.1 0 .3-.1.4-.1v-.1c-.1-.1-.1-.2-.1-.3zm-33.3-20.6.1.1c.1 0 .2 0 .3-.1.1 0 .2-.1.2-.2-.2-.1-.5 0-.6.2zm-.8 2.8s.1 0 .1-.1c.1 0 .1-.1.1-.2-.1-.1-.4-.1-.5.1.1 0 .2.1.3.1v.1c-.1 0-.1 0 0 0zm39.8 15c-.1-.1-.2-.1-.3-.1-.1 0-.1.1-.2.3.1 0 .1 0 .2.1.1.2.2.1.3-.1v-.2zm-18-31.5s.1 0 .1.1l.1.1.1-.1c-.2-.1-.4-.4-.7-.3.1.2.1.2.4.2zm34.3.9-.1.1c0 .1.1.2.1.3.2-.1.3-.2.5-.3-.2 0-.4-.1-.5-.1zm-36.4-6.3c.1.1.1.2.2.3.2-.1.4-.1.5-.2-.2-.2-.4-.2-.7-.1zm34.7 15.2.1-.1c0-.1 0-.2-.1-.3 0-.2-.1-.2-.3-.1-.1 0-.1.1-.1.1l.3.3c0 .1.1.1.1.1zm7.1 3.1.1-.1c-.2-.1-.3-.2-.5-.3 0 .1-.1.1-.1.2.1.1.1.1.1.2.1.1.3 0 .4 0zm-22.8-12.5-.2.2v.2l.1.1c.2 0 .3-.1.5-.2v-.1h-.2c0-.1.1-.1.1-.2h-.3zm-6.1-10.3h-.4c-.2 0-.2.1-.1.1.1.1 0 .3.2.2.1 0 .3-.1.4-.2-.1 0-.1-.1-.1-.1zm13.4 21.7c.2 0 .3-.2.3-.4-.1.1-.4 0-.4.2h-.4c.1.2.2.3.5.2zm-37-1.3c-.1 0-.2 0-.4.1 0 0-.1.1-.1.2 0 0 .1 0 .1.1h.3c.1 0 .1-.1.2-.1 0-.1-.1-.3-.1-.3zm16.5 6.2c-.1-.1-.3-.2-.4-.2-.2 0-.2.2-.3.3.2.1.4-.1.6-.1.1.1.1.1.1 0zm-16.6-7.6s-.1 0 0 0v.2c.2.2.4.1.6.1-.2 0-.2-.2-.2-.3-.1-.1-.2 0-.4 0 .1 0 0 0 0 0zm5.7-7.4v-.2h-.2c-.2.1-.2.3-.3.4.3.1.3 0 .5-.2zm25.8-.5c.1-.1.3-.2.4-.3v-.1c-.1-.1-.3-.1-.5-.1-.1.2 0 .3.1.5zm-6-4.9s0 .1 0 0c.2.1.8-.2.9-.3-.4-.1-.7.1-.9.3 0-.1-.1 0 0 0zm-1 25s-.1.1-.2.1c.2.1.3.2.5.2l.1-.1v-.3h.2c-.4-.2-.4-.2-.6.1zm-31.1-18.2v-.2c-.1 0-.2.1-.3.1-.1.1-.2.1-.2.2v.2c.1 0 .3 0 .4-.1.1 0 .1-.1.1-.2zm19.3.8c.3-.2.4-.3.3-.6-.2-.1-.4.1-.4.2-.2.2 0 .3.1.4zm-14.7 4.6c.1.1.4 0 .5 0v-.2c-.1-.1-.2-.1-.3-.2-.1 0-.2-.1-.3-.1-.1.2 0 .4.1.5zm-8.8 4.9c-.2 0-.4 0-.5.1v.1l.1.1h.1c0 .1 0 .2.1.3.1 0 .3 0 .5.1v-.1c-.1 0-.1-.1-.2-.1 0-.3 0-.5-.1-.5zm62.5 4.8c.1-.1.1-.3.2-.5-.1 0-.2 0-.4.1h-.1c-.1.1-.3.1-.1.3v.1h-.2c.2.2.5.2.6 0zm-13.5-18.9c.1-.1.2-.1.3-.1.1 0 .2 0 .2-.1s0-.2-.1-.2c-.1-.1-.2-.1-.4-.1s-.3 0-.4.2c.3 0 .3.2.4.3zm1.7-.5c.1 0 .2-.1.3-.2-.1 0-.1-.1-.2-.1s-.1-.1-.2-.1-.2-.1-.3-.1c0 0-.1.1-.1.2-.1.1-.1.2-.2.3h.7zm-9.8 3.1c-.1-.1-.1-.1-.2-.1l.2-.2c0-.1 0-.2-.1-.2-.3-.2-.4-.1-.6.2l.1.1s-.1.1-.1 0v.3c.1 0 .2-.1.3-.1 0 0 .1.1.2.1s.2 0 .2-.1zm2.9 2.4c-.2-.1-.3 0-.3.2.2.1.3.2.4.2.1 0 .2.1.2.1.2-.1.4-.2.4-.5h-.7zm8.6-3.1c.2-.1.2-.2.2-.3 0-.2-.1-.2-.2-.2 0-.1-.1-.1-.1-.2h-.1v.1h-.1c-.1 0-.2.1-.3.2-.1.1.1.2.1.2.2.3.3.2.5.2zm-3 3.1c0-.1.1-.2 0-.3-.1-.1-.2-.2-.3-.2-.1 0-.2.1-.4.1.1.1.1.1.1.2v.1c-.3.1-.2.3-.2.4.2 0 .3-.2.3-.4.2.2.4.2.5.1zM248 224c.1 0 .1.1.2.1l.2.2c0 .1 0 .1.1.1h.1v.1c.3 0 .4 0 .5-.3 0-.1 0-.1-.1-.2 0-.1-.1-.1-.1-.2 0 .1-.1.1-.1.2h-.8zm-2.2-7.8c.2-.1.2.1.3.1 0 .1.1.1.2.1.2.1.3-.1.5-.2l-.3-.6c0-.1.1-.1.1-.2-.3-.1-.4-.1-.5.1.2.3.2.3-.3.7zm-39.4 13.2s0-.1-.1-.1c.2-.1.4-.1.5-.2h.1l.1-.1c0-.1-.1-.1-.2-.1 0 0 .1-.1.2-.1v-.1c-.3.1-.5.3-.8.4v-.1c-.1.2-.2.3-.3.4.1 0 .2.1.3.1 0 .1-.1.2-.1.2h.4c-.1-.1-.1-.2-.1-.3zm66.4.2c-.2 0-.5.3-.5.4v.4c0 .1.1.4.2.4.2 0 .2-.1.3-.2.1-.3.1-.7.5-1v-.1c-.3 0-.2-.3-.2-.4h-.2c-.1.1-.4.2-.1.5zm-65 3.7h.2c.1 0 .1.1.2.2l-.1.1c-.2.1-.4.1-.6.2 0 0-.1 0-.2.1l-.3-.3v-.1c.2-.1.1-.2-.1-.3h.1s0-.1.1-.1h-.1c-.1 0-.2 0-.2-.1v-.4h-.1c-.1.1-.2.1-.3 0 0-.1.1-.2.1-.3.1-.1.2-.1.3-.1-.1.2-.1.3.1.3.1-.3.2-.3.5-.2.2.1.4.1.6.2.1 0 .1 0 .2.1-.4 0-.4.4-.4.7" style="fill:#e3b36b"/></g></g><g><defs><path id="SVGID_00000168800154979810421120000017018610679093806486_" d="M199.4 196.5h91.3v72.9h-91.3z"/></defs><clipPath id="SVGID_00000087399799794140284250000005932945242210193831_"><use xlink:href="#SVGID_00000168800154979810421120000017018610679093806486_" style="overflow:visible"/></clipPath><g style="clip-path:url(#SVGID_00000087399799794140284250000005932945242210193831_)"><defs><path id="SVGID_00000044174833892332915070000003626013739838733481_" d="M235.6 188.8c-3.1 1.4-21.6 14.4-22.8 15.5-3.8 3.4-5.7 10.3-7.9 14.7-.8 1.6-5.7 9.9-5.6 11.5 0 .3 1.7.5 1.9.6 6 1.5 10.9 5.9 16.9 7.4.1 0 2 .4 2 .4 0 8.7-2.6 17.9-3.6 26.6-.3 3-.9 8.2-.8 8.3.7.1 35.6-3.2 41.3-3 3.8.1 21.5 2.8 24.7-.5.3-.3-.6-10.6-.7-11.3-.3-3.2-.7-6.3-1.2-9.5-.7-4.6-2-9.7-2-14.4 0-.5 14.6-12.7 14.2-14.9-.1-.9-6.7-7-7.5-8-5.2-6-14-22.1-23.4-21.5-.1 0-3.5 8.1-11.7 8.6-11.8.6-13.8-10.5-13.8-10.5z"/></defs><clipPath id="SVGID_00000136376759108371158850000013532255117007650235_"><use xlink:href="#SVGID_00000044174833892332915070000003626013739838733481_" style="overflow:visible"/></clipPath><g style="clip-path:url(#SVGID_00000136376759108371158850000013532255117007650235_)"><path d="M215 266.3c0-.3.5.1.8.1 2.5.1 5 .1 7.4 0 5.2-.2 10.3-.5 15.5-.9 15.2-1.4 31-5.5 46.3-3.6m-69.8 6.4c.5.5 16.9-.2 18.4-.4 16-2.1 33.6-6.1 49.8-3.7m-66.6-5.8c.4-.2 17.2.2 19.1.1 9.1-.6 17.9-3.1 26.9-4 6.2-.7 12.4.1 18.7.2m-64.4 5.5c1.5 1.2 15.7 1.2 17.9.9 15.1-2 31.2-6.2 46.6-3.7m-63-5.5c4.4.1 10.1-.2 14.5-.6 9.5-.9 18.4-3.7 27.7-5.2 6-1 12.2-.7 18.2-1.6m-61.1 9.4c.7-.7 15.4-.5 17.4-.6 9-.8 17.5-3.7 26.4-5.2 6.4-1.1 12.9-.6 19.2-1.4m-61.7-3.8c-.5.1 6.1.2 7.1.3 4.4.4 8.8.7 13.3.8 13 .1 25.2-5.7 38.3-5.4m-57.7 1.1c-.2.1.4 0 .6 0 .5.1 1.1.1 1.6.2l3.9.6c4.5.7 9 1.2 13.5 1.2 12.8.1 24.3-6.3 37.1-6.3m-.7-9c.3-.3 1.4-1.4 1.8-1.6 1-.7 2-1.3 3-2 3-2.1 5.4-5.4 8.8-6.9m-14.5 7.5.2-.1 1.5-.6c1.1-.4 2.2-1 3.2-1.6 3-1.7 5.1-4.6 8.2-6.1m-65.8 17.9c-.1-.2 1.5 0 1.6 0 1.4.1 2.8.2 4.1.3 3.8.3 7.7.4 11.5.2 10.3-.7 25.6-3.2 35.1-7.9m-51.8 5.3c-.1.1 1.2.1 1.2.1 1.8-.2 3.7-.1 5.5-.1 3.7 0 7.4 0 11.1-.3 6.7-.5 13.5-1.4 20-3.1 4.4-1.1 9.1-3.5 13.7-3.9m-76.3 3.7c-.4-.4 1.2-.1 1.7-.1 2-.1 4 .1 6 .6 5 1.1 11.1 4.1 15.8 5.9m-22.3-8.8c.3.3 5.1.1 6.5.4 5.7 1.2 10.8 5.5 16.7 5.4M203.4 219c-.2.1.5-.2.7-.3.5-.1 1-.2 1.6-.3 1.5-.1 3 .1 4.5.4 4.2.7 9 2.8 13.3 2.9m.1-2.3c-2.5 0-5.8-1.1-6.9-1.4-3.2-.9-7.5-3.3-10.9-2m66.6-.6c-.1-.1-12.5 2.5-13.6 2.7-11 1.2-23.8-.4-34.2 3.6m47.4-8.6c-10.5 2.5-22 3.1-32.7 3.1-2.6 0-12.5.9-14.5 2.7m60.5-6.3c0 .1-.8.1-.9.1-1.2 0-2.3.2-3.5.3-2.8.4-5 1.7-7.6 2.5m11.3-4.4c.1-.4-3.4.1-4.7.3-2.6.3-4.6 1.5-7 2.2m-2.7-7.1c.5-.1-2.8.2-3.2.3-1.7.1-3.4.2-5 .5-4.9.8-9.7 1.6-14.6 2.4-8.1 1.3-15.2-.2-23.2-.3-6.5-.1-13.3.8-19.6 2.4m75.8-5.2c.2.3-.7 0-1 0-.7 0-1.4-.1-2.1-.1-2.1-.1-4.1-.2-6.1-.2m7.8-1.7c0 .1-1.3-.2-1.4-.2-1.3-.2-2.7-.3-4-.2-3.6.1-7.8.4-11.3 1.1-6.8 1.2-13.1 2.7-20.1 2.7-11.6-.1-23.3-2.9-34.7 1.2m32.6-8c-3.5.2-7.8-.3-11.4-.2-5.9.2-11.7 1.1-17.6 1.4m65.6-2.6c-.2.5-5-.1-5.5-.1-5.3 0-11.4.5-16.7 1.2m-16.4-1.9c-2.2-.1-5.8-.7-7.9-.7-4.6 0-9.2.7-13.8.7m58.7-.9c.4-.1-.8-.2-1.2-.3-1.3-.2-2.7-.4-4-.5-3.6-.3-7.5.7-11 1" style="fill:none;stroke:#9f2242;stroke-width:1.1664;stroke-linecap:round;stroke-linejoin:round;stroke-miterlimit:10"/></g></g></g><g><defs><path id="SVGID_00000178923360391444949700000006202457465624360893_" d="M231.7 188.8H265v14.8h-33.3z"/></defs><clipPath id="SVGID_00000160156324838065349880000011125319242075776943_"><use xlink:href="#SVGID_00000178923360391444949700000006202457465624360893_" style="overflow:visible"/></clipPath><g style="clip-path:url(#SVGID_00000160156324838065349880000011125319242075776943_)"><defs><path id="SVGID_00000127027149728105818270000001439290886919250584_" d="M235.6 188.8c-3.1 1.4-21.6 14.4-22.8 15.5-3.8 3.4-5.7 10.3-7.9 14.7-.8 1.6-5.7 9.9-5.6 11.5 0 .3 1.7.5 1.9.6 6 1.5 10.9 5.9 16.9 7.4.1 0 2 .4 2 .4 0 8.7-2.6 17.9-3.6 26.6-.3 3-.9 8.2-.8 8.3.7.1 35.6-3.2 41.3-3 3.8.1 21.5 2.8 24.7-.5.3-.3-.6-10.6-.7-11.3-.3-3.2-.7-6.3-1.2-9.5-.7-4.6-2-9.7-2-14.4 0-.5 14.6-12.7 14.2-14.9-.1-.9-6.7-7-7.5-8-5.2-6-14-22.1-23.4-21.5-.1 0-3.5 8.1-11.7 8.6-11.8.6-13.8-10.5-13.8-10.5z"/></defs><clipPath id="SVGID_00000123442985783583501730000016331974032676870804_"><use xlink:href="#SVGID_00000127027149728105818270000001439290886919250584_" style="overflow:visible"/></clipPath><path class="st137" d="M232.5 190.6c-.3.2 1.1 3 1.8 3.9 2.4 3.2 5.8 7.2 9.8 8 7.6 1.5 14.9-3.8 18.4-8.3.9-1.1 1-2.4 1.7-3.6m-2.2-.2c.2-.1 1.1 0 1.6.2m-2.8 1.2s.4.2.5.3c.5.3 1 .5 1.6.8m-3.4.3s.7.2.7.3c.5.2.9.5 1.4.8m-3.6.5c.7.2 1.4.8 2 1.1m-3.1.2c-.1.1.3.3.3.4.4.3.7.7 1.1 1.1m-3.2-.2c.5.6.9 1.1 1.5 1.6m-3.3-.3c.2.4.6 1.3 1 1.7M251 199s.3.6.3.7c.2.5.5 1 .7 1.4m-2.5-1.7v.3c0 .2.1.4.1.6.2.6.4 1.1.6 1.7m-2.9-2.3c0 .6.1 2.1.2 2.7m-2.3-2.7c0 .2-.1.6-.1.8 0 .6 0 1.3-.1 1.9m-1.5-3.5c-.1 0 0 .2 0 .3 0 .2-.1.4-.1.6-.1.5-.3 1.1-.5 1.6m-1.4-2.8c-.4.6-.9 1.2-1.3 1.9m0-3.3-.1.1c-.1.1-.2.2-.4.3-.3.3-.7.6-1 1m0-2.8c-.6.2-1.3 1.1-1.8 1.6m.5-3.3c.1 0-.2 0-.2.1-.1.1-.3.2-.4.3-.5.3-.9.7-1.4 1m.7-3.7s-.1 0-.2.1-.3.2-.4.3c-.5.4-1 .7-1.4 1.1m1.4-3.3c-.2 0-.4.2-.6.4-.6.4-1.2.7-1.8 1.1m2.4-2.9c.1.8 1.6 4.6 3.6 7 5.7 6.9 18.4 4.5 22.8-5.4" style="clip-path:url(#SVGID_00000123442985783583501730000016331974032676870804_)"/></g></g><g><defs><path id="SVGID_00000119084344342623755200000013748972151097221559_" d="M215.2 204.7h67.2v69.6h-67.2z"/></defs><clipPath id="SVGID_00000138546470393000643030000017797366074663526287_"><use xlink:href="#SVGID_00000119084344342623755200000013748972151097221559_" style="overflow:visible"/></clipPath><path class="st137" d="M215.8 273.4c1.1 0 3.3.4 4.4.3 3.4-.2 6.8-.6 10.2-.9 12.4-1.1 24.3-2.3 36.8-1.5 3 .2 12.4 1 14.5-1.4M270 205.3c.4.2 2.3 7.8 2.7 8.8 2.4 8.2 4.6 16 5.3 24.4m-54.7-28.6s.3 1.5.4 2.4c.2 1.5.3 2.9.5 4.4.4 5.7-1.7 16.2-2.9 21.8" style="clip-path:url(#SVGID_00000138546470393000643030000017797366074663526287_)"/></g></g></svg>